<!DOCTYPE svg PUBLIC "-//W3C//DTD SVG 20010904//EN" "http://www.w3.org/TR/2001/REC-SVG-20010904/DTD/svg10.dtd">
<svg version="1.0" xmlns="http://www.w3.org/2000/svg" width="778px" height="291px" viewBox="0 0 7780 2910" preserveAspectRatio="xMidYMid meet">
<g id="layer101" fill="#053d53" stroke="none">
<path d="M0 1455 l0 -1455 3890 0 3890 0 0 1455 0 1455 -3890 0 -3890 0 0 -1455z"/>
</g>
<g id="layer102" fill="#195770" stroke="none">
<path d="M0 1455 l0 -1455 3890 0 3890 0 0 1455 0 1455 -3890 0 -3890 0 0 -1455z m1007 328 c-4 -3 -7 0 -7 7 0 7 3 10 7 7 3 -4 3 -10 0 -14z m4110 -245 c-2 -13 -4 -3 -4 22 0 25 2 35 4 23 2 -13 2 -33 0 -45z m-3560 -50 c-3 -8 -6 -5 -6 6 -1 11 2 17 5 13 3 -3 4 -12 1 -19z m10 -85 c-4 -3 -7 0 -7 7 0 7 3 10 7 7 3 -4 3 -10 0 -14z m-720 -20 c-4 -3 -7 0 -7 7 0 7 3 10 7 7 3 -4 3 -10 0 -14z m1280 -10 c-4 -3 -10 -3 -14 0 -3 4 0 7 7 7 7 0 10 -3 7 -7z m-1290 -110 c-4 -3 -7 0 -7 7 0 7 3 10 7 7 3 -4 3 -10 0 -14z m80 -220 c-4 -3 -7 0 -7 7 0 7 3 10 7 7 3 -4 3 -10 0 -14z m700 -60 c-4 -3 -7 0 -7 7 0 7 3 10 7 7 3 -4 3 -10 0 -14z m3470 -70 c-4 -3 -7 0 -7 7 0 7 3 10 7 7 3 -4 3 -10 0 -14z m-680 -80 c-4 -3 -7 0 -7 7 0 7 3 10 7 7 3 -4 3 -10 0 -14z m20 -135 c-3 -8 -6 -5 -6 6 -1 11 2 17 5 13 3 -3 4 -12 1 -19z m-470 -325 c-4 -3 -10 -3 -14 0 -3 4 0 7 7 7 7 0 10 -3 7 -7z m120 -20 c-4 -3 -10 -3 -14 0 -3 4 0 7 7 7 7 0 10 -3 7 -7z m363 -3 c0 -5 -8 -10 -17 -10 -15 0 -16 2 -3 10 19 12 20 12 20 0z"/>
</g>
<g id="layer103" fill="#305d75" stroke="none">
<path d="M0 1455 l0 -1455 3890 0 3890 0 0 1455 0 1455 -3890 0 -3890 0 0 -1455z m3155 1065 c3 -5 4 -10 1 -10 -3 0 -8 5 -11 10 -3 6 -4 10 -1 10 3 0 8 -4 11 -10z m92 -127 c-4 -3 -7 0 -7 7 0 7 3 10 7 7 3 -4 3 -10 0 -14z m348 -113 c3 -5 4 -10 1 -10 -3 0 -8 5 -11 10 -3 6 -4 10 -1 10 3 0 8 -4 11 -10z m-268 -107 c-4 -3 -7 0 -7 7 0 7 3 10 7 7 3 -4 3 -10 0 -14z m55 -104 c48 -13 148 -56 148 -63 0 -3 -24 4 -52 15 -29 12 -73 29 -98 38 -32 12 -45 22 -46 36 -1 15 0 16 3 3 3 -11 21 -22 45 -29z m-25 24 c-4 -3 -7 0 -7 7 0 7 3 10 7 7 3 -4 3 -10 0 -14z m93 -23 c8 -5 11 -10 5 -10 -5 0 -17 5 -25 10 -8 5 -10 10 -5 10 6 0 17 -5 25 -10z m67 -27 c-4 -3 -10 -3 -14 0 -3 4 0 7 7 7 7 0 10 -3 7 -7z m82 -54 c-8 -5 -8 -8 0 -13 6 -4 15 -4 21 -1 5 3 18 1 27 -4 11 -6 13 -11 5 -11 -7 0 -10 -5 -7 -10 4 -6 16 -8 28 -5 15 4 18 3 9 -3 -10 -7 -7 -13 12 -25 14 -9 31 -15 38 -14 7 2 9 2 5 -1 -4 -2 -2 -11 5 -19 7 -9 -20 5 -59 31 -39 25 -74 46 -77 46 -3 0 -19 8 -35 18 l-30 18 34 0 c19 0 30 -3 24 -7z m175 -101 c4 -17 2 -28 -4 -28 -5 0 -10 14 -10 32 0 36 4 35 14 -4z m-3054 -83 c0 -8 -2 -15 -4 -15 -2 0 -6 7 -10 15 -3 8 -1 15 4 15 6 0 10 -7 10 -15z m277 8 c-4 -3 -10 -3 -14 0 -3 4 0 7 7 7 7 0 10 -3 7 -7z m5208 -3 c3 -6 -1 -7 -9 -4 -18 7 -21 14 -7 14 6 0 13 -4 16 -10z m-215 -15 c-7 -9 -15 -13 -19 -10 -3 3 1 10 9 15 21 14 24 12 10 -5z m-4983 -12 c-4 -3 -7 0 -7 7 0 7 3 10 7 7 3 -4 3 -10 0 -14z m753 7 c0 -5 -9 -10 -21 -10 -11 0 -17 5 -14 10 3 6 13 10 21 10 8 0 14 -4 14 -10z m-233 -27 c-4 -3 -7 0 -7 7 0 7 3 10 7 7 3 -4 3 -10 0 -14z m450 1 c-3 -3 -12 -4 -19 -1 -8 3 -5 6 6 6 11 1 17 -2 13 -5z m5042 -18 c8 -10 8 -16 -2 -24 -10 -9 -13 -6 -13 13 0 29 0 29 15 11z m-2459 0 c0 -3 -5 -8 -12 -12 -7 -4 -8 -3 -4 4 7 12 16 16 16 8z m-3543 -28 c-3 -8 -6 -5 -6 6 -1 11 2 17 5 13 3 -3 4 -12 1 -19z m4263 18 c0 -3 -5 -8 -12 -12 -7 -4 -8 -3 -4 4 7 12 16 16 16 8z m515 -6 c3 -5 4 -10 1 -10 -3 0 -8 5 -11 10 -3 6 -4 10 -1 10 3 0 8 -4 11 -10z m-1278 -72 c-3 -8 -6 -5 -6 6 -1 11 2 17 5 13 3 -3 4 -12 1 -19z m340 2 c2 -17 0 -18 -18 -2 -10 9 -19 17 -19 17 0 0 8 1 18 2 11 1 18 -6 19 -17z m250 -17 c-3 -10 -5 -4 -5 12 0 17 2 24 5 18 2 -7 2 -21 0 -30z m398 27 c-3 -5 -12 -10 -18 -10 -7 0 -6 4 3 10 19 12 23 12 15 0z m-268 -27 c-4 -3 -7 0 -7 7 0 7 3 10 7 7 3 -4 3 -10 0 -14z m-2982 -3 c3 -5 4 -10 1 -10 -3 0 -8 5 -11 10 -3 6 -4 10 -1 10 3 0 8 -4 11 -10z m2252 -62 c-2 -13 -4 -3 -4 22 0 25 2 35 4 23 2 -13 2 -33 0 -45z m950 55 c-4 -3 -10 -3 -14 0 -3 4 0 7 7 7 7 0 10 -3 7 -7z m-230 -25 c-3 -8 -6 -5 -6 6 -1 11 2 17 5 13 3 -3 4 -12 1 -19z m-2942 2 c3 -5 4 -10 1 -10 -3 0 -8 5 -11 10 -3 6 -4 10 -1 10 3 0 8 -4 11 -10z m3315 6 c0 -3 -5 -8 -12 -12 -7 -4 -8 -3 -4 4 7 12 16 16 16 8z m-483 -83 c-2 -16 -4 -3 -4 27 0 30 2 43 4 28 2 -16 2 -40 0 -55z m360 70 c-4 -3 -10 -3 -14 0 -3 4 0 7 7 7 7 0 10 -3 7 -7z m1720 0 c-4 -3 -10 -3 -14 0 -3 4 0 7 7 7 7 0 10 -3 7 -7z m-6160 -20 c-4 -3 -7 0 -7 7 0 7 3 10 7 7 3 -4 3 -10 0 -14z m510 -15 c-3 -7 -5 -2 -5 12 0 14 2 19 5 13 2 -7 2 -19 0 -25z m4300 -330 c-1 -68 -3 -15 -3 117 0 132 2 187 3 123 2 -64 2 -172 0 -240z m-260 -85 c-1 -81 -3 -17 -3 142 0 160 2 226 3 148 2 -78 2 -208 0 -290z m-4440 370 c-4 -3 -10 -3 -14 0 -3 4 0 7 7 7 7 0 10 -3 7 -7z m-100 -45 c-3 -7 -5 -2 -5 12 0 14 2 19 5 13 2 -7 2 -19 0 -25z m510 10 c-3 -8 -6 -5 -6 6 -1 11 2 17 5 13 3 -3 4 -12 1 -19z m960 -15 c-4 -3 -10 -3 -14 0 -3 4 0 7 7 7 7 0 10 -3 7 -7z m2700 -205 c-1 -40 -3 -10 -3 67 0 77 1 110 3 73 2 -37 2 -100 0 -140z m-2610 186 c-3 -3 -12 -4 -19 -1 -8 3 -5 6 6 6 11 1 17 -2 13 -5z m86 -11 c-18 -7 -16 -23 2 -23 8 0 22 -16 30 -36 20 -50 19 -55 -5 -16 -11 17 -24 32 -28 32 -5 0 -14 11 -20 25 -11 23 -9 25 11 24 12 0 16 -3 10 -6z m-1846 -55 c-2 -13 -4 -5 -4 17 -1 22 1 32 4 23 2 -10 2 -28 0 -40z m720 10 c-3 -7 -5 -2 -5 12 0 14 2 19 5 13 2 -7 2 -19 0 -25z m3228 -7 c3 -5 2 -12 -3 -15 -5 -3 -9 1 -9 9 0 17 3 19 12 6z m-3728 -33 c-3 -8 -6 -5 -6 6 -1 11 2 17 5 13 3 -3 4 -12 1 -19z m1066 15 c-7 -2 -19 -2 -25 0 -7 3 -2 5 12 5 14 0 19 -2 13 -5z m44 -10 c-4 -3 -10 -3 -14 0 -3 4 0 7 7 7 7 0 10 -3 7 -7z m-1290 -25 c-3 -8 -6 -5 -6 6 -1 11 2 17 5 13 3 -3 4 -12 1 -19z m5520 -120 c-2 -29 -3 -8 -3 47 0 55 1 79 3 53 2 -26 2 -71 0 -100z m593 138 c0 -3 -5 -8 -12 -12 -7 -4 -8 -3 -4 4 7 12 16 16 16 8z m-1927 -21 c-3 -9 -8 -14 -10 -11 -3 3 -2 9 2 15 9 16 15 13 8 -4z m-2818 -5 c3 -5 4 -10 1 -10 -3 0 -8 5 -11 10 -3 6 -4 10 -1 10 3 0 8 -4 11 -10z m542 -127 c-7 -6 -23 21 -40 67 -26 71 -19 71 14 1 16 -35 28 -66 26 -68z m-1680 85 c-3 -8 -6 -5 -6 6 -1 11 2 17 5 13 3 -3 4 -12 1 -19z m1167 11 c3 -3 -4 -5 -14 -6 -11 -1 -22 2 -24 6 -5 8 30 8 38 0z m2366 6 c0 -2 -10 -9 -22 -15 -22 -11 -22 -10 -4 4 21 17 26 19 26 11z m-1923 -22 c-4 -3 -7 0 -7 7 0 7 3 10 7 7 3 -4 3 -10 0 -14z m-1890 -25 c-3 -8 -6 -5 -6 6 -1 11 2 17 5 13 3 -3 4 -12 1 -19z m60 5 c-4 -3 -7 0 -7 7 0 7 3 10 7 7 3 -4 3 -10 0 -14z m430 0 c-4 -3 -7 0 -7 7 0 7 3 10 7 7 3 -4 3 -10 0 -14z m1420 -20 c-4 -3 -7 0 -7 7 0 7 3 10 7 7 3 -4 3 -10 0 -14z m-1850 -15 c-3 -8 -6 -5 -6 6 -1 11 2 17 5 13 3 -3 4 -12 1 -19z m690 5 c-4 -3 -7 0 -7 7 0 7 3 10 7 7 3 -4 3 -10 0 -14z m-760 -85 c-2 -18 -4 -6 -4 27 0 33 2 48 4 33 2 -15 2 -42 0 -60z m3733 78 c0 -2 -8 -10 -17 -17 -16 -13 -17 -12 -4 4 13 16 21 21 21 13z m-1724 -77 c13 -26 14 -33 2 -40 -7 -5 -17 -9 -23 -9 -5 1 -2 5 8 11 16 9 16 12 2 32 -8 12 -15 25 -15 29 0 16 10 7 26 -23z m-1239 -1 c-3 -8 -6 -5 -6 6 -1 11 2 17 5 13 3 -3 4 -12 1 -19z m-690 -20 c-3 -7 -5 -2 -5 12 0 14 2 19 5 13 2 -7 2 -19 0 -25z m3600 -5 c-4 -3 -7 0 -7 7 0 7 3 10 7 7 3 -4 3 -10 0 -14z m710 -20 c-4 -3 -7 0 -7 7 0 7 3 10 7 7 3 -4 3 -10 0 -14z m-2323 -53 c33 -46 34 -50 13 -46 -12 3 -28 5 -35 5 -7 1 -10 6 -7 11 5 8 11 7 21 -1 21 -17 17 5 -6 32 -16 19 -19 20 -13 5 4 -13 3 -17 -5 -12 -11 6 -18 56 -8 56 2 0 20 -22 40 -50z m-1287 3 c-3 -10 -5 -4 -5 12 0 17 2 24 5 18 2 -7 2 -21 0 -30z m-690 -5 c-3 -8 -6 -5 -6 6 -1 11 2 17 5 13 3 -3 4 -12 1 -19z m4171 -39 c-3 -20 -5 -19 -9 9 -3 20 -2 29 4 23 5 -5 7 -19 5 -32z m-2991 -1 c-3 -7 -5 -2 -5 12 0 14 2 19 5 13 2 -7 2 -19 0 -25z m3750 -15 c-3 -10 -5 -2 -5 17 0 19 2 27 5 18 2 -10 2 -26 0 -35z m-5030 5 c-3 -7 -5 -2 -5 12 0 14 2 19 5 13 2 -7 2 -19 0 -25z m540 -25 c-3 -10 -5 -2 -5 17 0 19 2 27 5 18 2 -10 2 -26 0 -35z m-110 15 c-3 -8 -6 -5 -6 6 -1 11 2 17 5 13 3 -3 4 -12 1 -19z m370 -10 c-3 -8 -6 -5 -6 6 -1 11 2 17 5 13 3 -3 4 -12 1 -19z m5020 5 c-4 -3 -7 0 -7 7 0 7 3 10 7 7 3 -4 3 -10 0 -14z m-4330 -40 c-4 -3 -7 0 -7 7 0 7 3 10 7 7 3 -4 3 -10 0 -14z m2190 0 c-4 -3 -7 0 -7 7 0 7 3 10 7 7 3 -4 3 -10 0 -14z m1101 -8 c-3 -3 -9 2 -12 12 -6 14 -5 15 5 6 7 -7 10 -15 7 -18z m-4791 -47 c-2 -13 -4 -5 -4 17 -1 22 1 32 4 23 2 -10 2 -28 0 -40z m4053 42 c0 13 1 13 10 0 5 -8 10 -19 10 -25 0 -5 -5 -3 -10 5 -9 13 -10 13 -10 0 0 -13 -1 -13 -10 0 -5 8 -10 20 -10 25 0 6 5 3 10 -5 9 -13 10 -13 10 0z m227 -17 c-4 -3 -7 0 -7 7 0 7 3 10 7 7 3 -4 3 -10 0 -14z m1340 -20 c-3 -10 -5 -4 -5 12 0 17 2 24 5 18 2 -7 2 -21 0 -30z m-5490 -5 c-3 -7 -5 -2 -5 12 0 14 2 19 5 13 2 -7 2 -19 0 -25z m4320 15 c-4 -3 -7 0 -7 7 0 7 3 10 7 7 3 -4 3 -10 0 -14z m-417 3 c0 -3 -5 -8 -12 -12 -7 -4 -8 -3 -4 4 7 12 16 16 16 8z m730 -6 c0 -5 -10 -10 -22 -9 -22 0 -22 1 -3 9 11 5 21 9 23 9 1 1 2 -3 2 -9z m-1050 -35 c0 -5 -5 -3 -10 5 -5 8 -10 20 -10 25 0 6 5 3 10 -5 5 -8 10 -19 10 -25z m-2893 -7 c-3 -8 -6 -5 -6 6 -1 11 2 17 5 13 3 -3 4 -12 1 -19z m3650 5 c-4 -3 -7 0 -7 7 0 7 3 10 7 7 3 -4 3 -10 0 -14z m1200 -65 c-2 -18 -4 -6 -4 27 0 33 2 48 4 33 2 -15 2 -42 0 -60z m-680 45 c-4 -3 -7 0 -7 7 0 7 3 10 7 7 3 -4 3 -10 0 -14z m-1369 -173 c-1 -56 -3 -44 -14 68 -3 34 -10 60 -15 57 -5 -4 -6 2 -2 12 6 17 5 17 -15 -1 -26 -23 -28 -34 -5 -32 10 0 18 -7 19 -17 1 -12 0 -13 -3 -2 -2 8 -7 15 -9 15 -3 0 -86 -81 -185 -180 -98 -99 -182 -180 -185 -180 -4 0 1 10 12 22 l19 22 -25 -16 c-14 -9 -24 -22 -22 -28 1 -6 -2 -9 -7 -5 -6 3 -15 -4 -21 -15 -6 -11 -16 -20 -23 -20 -6 0 94 107 223 238 l235 237 12 -60 c7 -33 12 -85 11 -115z m-3051 153 c-4 -3 -7 0 -7 7 0 7 3 10 7 7 3 -4 3 -10 0 -14z m260 -20 c-4 -3 -7 0 -7 7 0 7 3 10 7 7 3 -4 3 -10 0 -14z m-250 -40 c-3 -10 -5 -4 -5 12 0 17 2 24 5 18 2 -7 2 -21 0 -30z m3973 27 c0 -5 -2 -10 -4 -10 -3 0 -8 5 -11 10 -3 6 -1 10 4 10 6 0 11 -4 11 -10z m317 3 c-4 -3 -10 -3 -14 0 -3 4 0 7 7 7 7 0 10 -3 7 -7z m-4880 -35 c-3 -8 -6 -5 -6 6 -1 11 2 17 5 13 3 -3 4 -12 1 -19z m6253 7 c0 -13 -33 -15 -247 -13 l-248 3 243 2 c150 2 242 7 242 13 0 6 2 10 5 10 3 0 5 -7 5 -15z m-4893 -2 c-4 -3 -10 -3 -14 0 -3 4 0 7 7 7 7 0 10 -3 7 -7z m3543 3 c0 -3 -5 -8 -12 -12 -7 -4 -8 -3 -4 4 7 12 16 16 16 8z m-5017 -13 c-24 -2 -62 -2 -85 0 -24 2 -5 4 42 4 47 0 66 -2 43 -4z m479 0 c-40 -2 -103 -2 -140 0 -37 2 -4 3 73 3 77 0 107 -2 67 -3z m401 0 c-23 -2 -64 -2 -90 0 -26 2 -7 3 42 3 50 0 71 -1 48 -3z m380 0 c-35 -2 -91 -2 -125 0 -35 2 -7 3 62 3 69 0 97 -1 63 -3z m4360 0 c-57 -2 -149 -2 -205 0 -57 1 -11 3 102 3 113 0 159 -2 103 -3z m-1420 -20 c-7 -2 -21 -2 -30 0 -10 3 -4 5 12 5 17 0 24 -2 18 -5z m734 0 c-4 -3 -10 -3 -14 0 -3 4 0 7 7 7 7 0 10 -3 7 -7z m-1240 -10 c-4 -3 -10 -3 -14 0 -3 4 0 7 7 7 7 0 10 -3 7 -7z m420 0 c-4 -3 -10 -3 -14 0 -3 4 0 7 7 7 7 0 10 -3 7 -7z m-480 -60 c-4 -3 -7 0 -7 7 0 7 3 10 7 7 3 -4 3 -10 0 -14z m-20 -20 c-4 -3 -10 -3 -14 0 -3 4 0 7 7 7 7 0 10 -3 7 -7z m-60 -60 c-4 -3 -7 0 -7 7 0 7 3 10 7 7 3 -4 3 -10 0 -14z m203 -113 l0 -130 -127 2 -128 2 123 3 122 4 0 124 c0 69 2 125 5 125 3 0 5 -58 5 -130z m-223 93 c-4 -3 -10 -3 -14 0 -3 4 0 7 7 7 7 0 10 -3 7 -7z m-60 -60 c-4 -3 -7 0 -7 7 0 7 3 10 7 7 3 -4 3 -10 0 -14z m-20 -20 c-4 -3 -10 -3 -14 0 -3 4 0 7 7 7 7 0 10 -3 7 -7z m-67 -68 c-7 -8 -16 -15 -21 -15 -5 0 -1 8 9 18 20 22 31 19 12 -3z m-42 -52 c-10 -2 -28 -2 -40 0 -13 2 -5 4 17 4 22 1 32 -1 23 -4z m110 -10 c-16 -2 -40 -2 -55 0 -16 2 -3 4 27 4 30 0 43 -2 28 -4z"/>
<path d="M3623 1963 c4 -3 10 -3 14 0 3 4 0 7 -7 7 -7 0 -10 -3 -7 -7z"/>
<path d="M4192 615 c-85 -85 -153 -157 -151 -160 3 -2 77 68 164 155 88 88 156 160 151 160 -4 0 -78 -70 -164 -155z"/>
</g>
<g id="layer104" fill="#376b83" stroke="none">
<path d="M0 1455 l0 -1455 3890 0 3890 0 0 1455 0 1455 -3890 0 -3890 0 0 -1455z m3173 1050 c23 -32 17 -32 -13 0 -13 14 -19 25 -14 25 5 0 17 -12 27 -25z m174 -42 c-4 -3 -10 -3 -14 0 -3 4 0 7 7 7 7 0 10 -3 7 -7z m-99 -68 c-3 -3 -9 2 -12 12 -6 14 -5 15 5 6 7 -7 10 -15 7 -18z m267 -35 c3 -5 4 -10 1 -10 -3 0 -8 5 -11 10 -3 6 -4 10 -1 10 3 0 8 -4 11 -10z m80 -80 c3 -5 4 -10 1 -10 -3 0 -8 5 -11 10 -3 6 -4 10 -1 10 3 0 8 -4 11 -10z m-268 -107 c-4 -3 -7 0 -7 7 0 7 3 10 7 7 3 -4 3 -10 0 -14z m30 -50 c-4 -3 -7 0 -7 7 0 7 3 10 7 7 3 -4 3 -10 0 -14z m48 -29 c22 -10 46 -18 53 -17 6 0 12 -3 12 -8 0 -5 11 -9 25 -9 14 0 25 -4 25 -9 0 -5 12 -12 26 -15 14 -4 37 -18 50 -31 13 -13 24 -20 24 -15 0 5 7 7 16 3 15 -6 15 -8 -2 -20 -21 -16 -54 -17 -54 -2 0 5 -4 8 -9 4 -5 -3 -17 2 -25 11 -9 8 -16 13 -16 11 0 -3 -36 10 -81 29 -44 19 -86 34 -93 34 -21 0 -33 20 -28 45 3 18 8 22 21 16 9 -5 34 -17 56 -27z m310 -14 c3 -5 4 -10 1 -10 -3 0 -8 5 -11 10 -3 6 -4 10 -1 10 3 0 8 -4 11 -10z m-198 -7 c-4 -3 -10 -3 -14 0 -3 4 0 7 7 7 7 0 10 -3 7 -7z m-731 -83 c0 -23 -12 -17 -19 9 -3 12 0 18 7 15 6 -2 12 -13 12 -24z m895 -32 c46 -25 75 -50 61 -55 -6 -3 -10 -9 -6 -14 10 -17 24 -9 25 14 1 18 2 17 10 -7 4 -17 6 -32 4 -34 -4 -5 -105 57 -105 64 0 3 9 0 19 -6 11 -5 23 -10 28 -10 4 1 -3 7 -17 14 -14 8 -28 12 -32 10 -4 -3 -17 0 -29 7 -17 9 -19 13 -8 20 18 11 23 11 50 -3z m-756 -28 c3 -6 -1 -7 -9 -4 -18 7 -21 14 -7 14 6 0 13 -4 16 -10z m86 -66 c9 -11 2 -9 -18 6 -18 13 -33 25 -33 27 0 8 38 -17 51 -33z m1909 -25 c27 -6 48 -15 45 -20 -4 -5 0 -6 7 -4 8 3 34 -8 59 -25 71 -47 84 -85 84 -255 0 -129 -2 -144 -25 -188 -29 -58 -78 -101 -217 -191 -109 -70 -117 -79 -127 -141 -14 -82 35 -143 78 -99 12 11 16 35 16 85 l0 69 131 0 130 0 -2 -62 c-2 -99 -10 -149 -22 -141 -6 3 -7 1 -3 -6 14 -22 -36 -73 -103 -105 -62 -29 -73 -31 -181 -31 -129 0 -186 18 -247 77 -33 32 -59 90 -49 107 4 5 2 12 -4 16 -15 9 -12 155 5 212 8 27 25 65 38 84 21 32 207 172 216 164 2 -3 27 19 55 48 l52 52 -1 74 c-1 64 -4 76 -24 92 -29 24 -36 24 -61 -1 -20 -20 -24 -49 -24 -173 l0 -38 -129 2 -129 3 4 110 c5 125 22 173 80 221 38 33 95 58 108 50 6 -4 10 -2 10 4 0 21 149 27 230 10z m767 -18 c59 -26 138 -104 129 -127 -3 -8 -2 -12 4 -9 8 5 27 -49 29 -85 9 -158 11 -473 3 -565 -11 -134 -26 -177 -84 -232 -36 -35 -122 -78 -137 -68 -5 3 -12 1 -16 -5 -14 -23 -235 -3 -235 21 0 6 -4 8 -9 4 -5 -3 -16 1 -24 9 -8 8 -17 13 -20 10 -2 -3 -25 18 -49 45 -49 54 -73 118 -66 175 2 19 0 32 -4 30 -4 -3 -8 115 -8 261 0 146 3 264 8 262 4 -3 7 23 7 57 1 65 14 94 69 154 61 67 139 93 261 89 67 -3 103 -9 142 -26z m-4672 -42 c4 -28 9 -66 11 -83 2 -17 15 -107 29 -201 13 -93 25 -185 25 -203 0 -21 4 -31 11 -26 6 3 8 17 4 31 -4 16 -2 22 4 18 7 -3 8 0 5 10 -6 15 14 202 23 218 3 5 7 33 9 63 2 31 7 61 11 67 4 6 7 21 8 32 5 77 5 80 15 65 6 -10 8 -3 3 23 l-6 37 179 -2 178 -3 8 -45 c4 -25 10 -76 13 -115 3 -38 14 -139 25 -223 10 -85 19 -161 19 -170 0 -9 9 -87 19 -172 11 -85 20 -162 20 -170 0 -8 5 -46 11 -85 18 -116 30 -105 -123 -105 l-134 0 -6 28 c-24 114 -62 511 -65 672 -2 106 -23 77 -27 -37 -6 -163 -16 -307 -30 -458 -8 -82 -14 -162 -14 -177 l0 -28 -149 0 -148 0 -12 93 c-31 241 -51 440 -52 517 -2 157 -28 179 -29 24 -1 -49 -5 -132 -10 -184 -5 -52 -15 -175 -21 -272 l-12 -178 -138 0 -139 0 6 58 c4 31 10 59 13 62 3 3 7 25 8 50 1 25 4 68 7 95 4 28 6 63 6 79 0 15 5 34 11 42 6 7 8 17 5 22 -7 12 16 232 24 227 3 -2 5 11 4 28 -1 18 7 104 17 192 11 88 22 171 23 185 2 14 4 31 4 38 2 9 44 12 176 12 l174 0 7 -51z m975 -169 l0 -220 65 0 c130 0 203 -31 243 -104 14 -26 17 -60 17 -206 0 -163 -2 -178 -23 -223 -46 -93 -121 -114 -409 -116 l-173 -2 0 546 0 545 140 0 140 0 0 -220z m895 210 c3 -5 4 -10 1 -10 -3 0 -8 5 -11 10 -3 6 -4 10 -1 10 3 0 8 -4 11 -10z m3355 -220 l0 -230 84 0 c47 0 87 -4 91 -9 3 -6 2 -53 -1 -105 l-7 -96 -83 0 -84 0 0 -100 0 -99 98 -3 97 -3 2 -107 1 -108 -238 0 -239 0 0 545 0 545 139 0 140 0 0 -230z m670 -205 l0 -435 85 0 85 0 0 -110 0 -110 -309 0 -308 0 -1 110 -1 109 85 3 85 3 -1 433 0 432 140 0 140 0 0 -435z m177 346 l18 -23 19 21 c26 29 41 26 70 -12 22 -28 26 -45 26 -100 l0 -66 -131 1 -132 0 6 77 c3 42 8 84 12 93 8 21 32 30 41 16 4 -6 3 -9 -2 -6 -5 4 -10 -26 -11 -66 l-2 -71 35 1 c19 1 37 4 39 6 2 2 5 23 6 47 3 49 -17 73 -54 64 -17 -5 -20 -3 -10 7 6 7 9 18 6 25 -8 22 45 10 64 -14z m-4832 -101 c3 -5 4 -10 1 -10 -3 0 -8 5 -11 10 -3 6 -4 10 -1 10 3 0 8 -4 11 -10z m30 -30 c3 -5 4 -10 1 -10 -3 0 -8 5 -11 10 -3 6 -4 10 -1 10 3 0 8 -4 11 -10z m110 -80 c3 -5 4 -10 1 -10 -3 0 -8 5 -11 10 -3 6 -4 10 -1 10 3 0 8 -4 11 -10z m85 -40 c8 -5 11 -10 5 -10 -5 0 -17 5 -25 10 -8 5 -10 10 -5 10 6 0 17 -5 25 -10z m4740 -26 c0 -24 -1 -24 -102 -25 -57 -1 -106 -1 -109 -1 -8 1 -4 -86 4 -94 3 -4 51 -6 107 -5 l100 2 0 -26 0 -25 -105 0 c-67 0 -105 4 -105 11 0 5 -4 8 -10 4 -16 -10 -38 38 -39 88 0 26 4 47 10 47 6 0 8 4 4 9 -3 5 4 16 16 25 16 10 49 14 125 14 103 0 104 0 104 -24z m-4703 9 c-4 -3 -10 -3 -14 0 -3 4 0 7 7 7 7 0 10 -3 7 -7z m40 -9 c-3 -3 -12 -4 -19 -1 -8 3 -5 6 6 6 11 1 17 -2 13 -5z m50 -10 c-3 -3 -12 -4 -19 -1 -8 3 -5 6 6 6 11 1 17 -2 13 -5z m86 -11 c-18 -7 -16 -21 3 -25 16 -3 95 -175 97 -210 1 -9 4 -15 8 -12 3 2 22 -24 40 -59 43 -79 44 -81 29 -72 -9 5 -11 4 -6 -4 4 -6 11 -9 15 -7 4 3 18 -8 30 -24 22 -31 17 -35 -26 -24 -13 4 -20 10 -17 15 3 5 1 9 -3 9 -5 0 -15 16 -22 35 -7 19 -18 35 -24 35 -8 0 -7 4 2 9 12 8 12 14 -3 43 -12 22 -16 25 -13 11 9 -40 -7 -24 -36 35 -18 38 -25 65 -21 82 4 19 3 21 -5 10 -12 -17 -11 -19 -40 50 -20 50 -28 73 -30 92 -1 3 -9 9 -18 11 -10 3 -2 5 17 5 19 0 29 -2 23 -5z m-278 -163 c3 -5 4 -10 1 -10 -3 0 -8 5 -11 10 -3 6 -4 10 -1 10 3 0 8 -4 11 -10z m4805 -74 c0 -24 -3 -26 -50 -26 l-50 0 0 -50 0 -50 51 0 c47 0 50 -1 38 -17 -10 -11 -10 -14 -1 -9 7 4 12 2 12 -7 0 -12 -24 -15 -130 -16 l-130 -2 0 24 c0 24 2 25 59 22 52 -2 60 0 64 17 4 13 11 17 19 13 7 -3 5 0 -4 8 -10 8 -18 26 -18 40 0 25 -3 26 -57 29 -49 3 -58 6 -61 23 -3 19 4 20 128 23 l130 3 0 -25z m-4735 -6 c3 -5 4 -10 1 -10 -3 0 -8 5 -11 10 -3 6 -4 10 -1 10 3 0 8 -4 11 -10z m335 -70 c0 -5 -5 -10 -11 -10 -5 0 -7 5 -4 10 3 6 8 10 11 10 2 0 4 -4 4 -10z m-195 -30 c3 -5 4 -10 1 -10 -3 0 -8 5 -11 10 -3 6 -4 10 -1 10 3 0 8 -4 11 -10z m40 -20 c3 -5 4 -10 1 -10 -3 0 -8 5 -11 10 -3 6 -4 10 -1 10 3 0 8 -4 11 -10z m1756 -274 c12 -13 11 -53 -1 -61 -5 -3 -10 -12 -10 -18 0 -7 4 -6 10 3 17 27 21 -12 23 -206 l2 -189 -95 -3 c-52 -2 -151 2 -220 8 -69 6 -132 12 -140 12 -8 0 -20 5 -27 10 -7 5 -17 7 -23 3 -38 -24 19 39 228 246 157 157 238 230 240 220 2 -9 8 -20 13 -25z"/>
<path d="M3355 2080 c3 -5 8 -10 11 -10 3 0 2 5 -1 10 -3 6 -8 10 -11 10 -3 0 -2 -4 1 -10z"/>
<path d="M4623 1783 c4 -3 10 -3 14 0 3 4 0 7 -7 7 -7 0 -10 -3 -7 -7z"/>
<path d="M4673 1283 c4 -3 10 -3 14 0 3 4 0 7 -7 7 -7 0 -10 -3 -7 -7z"/>
<path d="M4720 1109 c0 -5 5 -7 10 -4 6 3 10 8 10 11 0 2 -4 4 -10 4 -5 0 -10 -5 -10 -11z"/>
<path d="M4865 1050 c3 -5 8 -10 11 -10 3 0 2 5 -1 10 -3 6 -8 10 -11 10 -3 0 -2 -4 1 -10z"/>
<path d="M5044 1048 c-4 -7 -3 -8 4 -4 7 4 12 9 12 12 0 8 -9 4 -16 -8z"/>
<path d="M4851 994 c0 -11 3 -14 6 -6 3 7 2 16 -1 19 -3 4 -6 -2 -5 -13z"/>
<path d="M5050 975 c0 -8 7 -15 15 -15 8 0 15 7 15 15 0 8 -7 15 -15 15 -8 0 -15 -7 -15 -15z"/>
<path d="M4847 926 c-4 -9 -3 -15 2 -11 5 3 11 0 13 -7 3 -7 7 -5 11 6 4 9 3 15 -2 11 -5 -3 -11 0 -13 7 -3 7 -7 5 -11 -6z"/>
<path d="M5506 1658 c-14 -8 -16 -46 -16 -372 0 -321 2 -365 16 -377 13 -11 20 -11 42 2 l27 15 0 339 c0 187 -3 352 -7 366 -9 29 -36 41 -62 27z"/>
<path d="M5454 1618 c-4 -7 -3 -8 4 -4 12 7 16 16 8 16 -3 0 -8 -5 -12 -12z"/>
<path d="M5592 1585 c0 -16 2 -22 5 -12 2 9 2 23 0 30 -3 6 -5 -1 -5 -18z"/>
<path d="M5445 900 c3 -5 13 -10 21 -10 8 0 14 5 14 10 0 6 -9 10 -21 10 -11 0 -17 -4 -14 -10z"/>
<path d="M5553 883 c4 -3 10 -3 14 0 3 4 0 7 -7 7 -7 0 -10 -3 -7 -7z"/>
<path d="M700 1800 c0 -7 3 -10 7 -7 3 4 3 10 0 14 -4 3 -7 0 -7 -7z"/>
<path d="M1545 1440 c3 -5 8 -10 11 -10 3 0 2 5 -1 10 -3 6 -8 10 -11 10 -3 0 -2 -4 1 -10z"/>
<path d="M810 1385 c0 -16 6 -25 15 -25 9 0 15 9 15 25 0 16 -6 25 -15 25 -9 0 -15 -9 -15 -25z"/>
<path d="M1538 1393 c7 -3 16 -2 19 1 4 3 -2 6 -13 5 -11 0 -14 -3 -6 -6z"/>
<path d="M1560 1350 c0 -7 3 -10 7 -7 3 4 3 10 0 14 -4 3 -7 0 -7 -7z"/>
<path d="M1331 1264 c0 -11 3 -14 6 -6 3 7 2 16 -1 19 -3 4 -6 -2 -5 -13z"/>
<path d="M790 1130 c0 -5 7 -10 15 -10 8 0 15 5 15 10 0 6 -7 10 -15 10 -8 0 -15 -4 -15 -10z"/>
<path d="M1390 790 c0 -7 3 -10 7 -7 3 4 3 10 0 14 -4 3 -7 0 -7 -7z"/>
<path d="M2040 900 c0 -11 7 -20 15 -20 8 0 15 9 15 20 0 11 -7 20 -15 20 -8 0 -15 -9 -15 -20z"/>
<path d="M2013 763 c4 -3 10 -3 14 0 3 4 0 7 -7 7 -7 0 -10 -3 -7 -7z"/>
<path d="M7150 1723 c0 -7 -5 -12 -12 -10 -15 3 -25 -37 -20 -80 4 -29 7 -32 29 -28 34 6 38 11 39 48 1 18 3 39 5 47 2 9 -2 14 -10 12 -8 -2 -18 3 -22 10 -7 10 -9 10 -9 1z"/>
<path d="M7100 1700 c0 -7 3 -10 7 -7 3 4 3 10 0 14 -4 3 -7 0 -7 -7z"/>
<path d="M7198 1640 c2 -22 6 -40 8 -40 2 0 4 18 4 40 0 22 -3 40 -8 40 -4 0 -6 -18 -4 -40z"/>
<path d="M7200 1460 c0 -7 3 -10 7 -7 3 4 3 10 0 14 -4 3 -7 0 -7 -7z"/>
<path d="M2690 1396 c0 -2 8 -10 18 -17 15 -13 16 -12 3 4 -13 16 -21 21 -21 13z"/>
<path d="M2730 1330 c0 -7 3 -10 7 -7 3 4 3 10 0 14 -4 3 -7 0 -7 -7z"/>
<path d="M4385 780 c3 -5 8 -10 11 -10 2 0 4 5 4 10 0 6 -5 10 -11 10 -5 0 -7 -4 -4 -10z"/>
<path d="M4019 433 c-13 -16 -12 -17 4 -4 16 13 21 21 13 21 -2 0 -10 -8 -17 -17z"/>
<path d="M3994 408 c3 -21 16 -38 29 -37 9 0 9 2 0 6 -7 2 -13 11 -13 18 0 8 -4 16 -9 19 -5 4 -8 0 -7 -6z"/>
<path d="M3973 373 c4 -3 10 -3 14 0 3 4 0 7 -7 7 -7 0 -10 -3 -7 -7z"/>
<path d="M4200 370 c0 -7 3 -10 7 -7 3 4 3 10 0 14 -4 3 -7 0 -7 -7z"/>
</g>
<g id="layer105" fill="#4d6778" stroke="none">
<path d="M0 1455 l0 -1455 3890 0 3890 0 0 1455 0 1455 -3890 0 -3890 0 0 -1455z m3195 1065 c14 -6 16 -9 5 -10 -8 -2 -18 -2 -22 -1 -13 2 -9 -6 9 -20 11 -10 14 -10 9 -1 -11 19 8 14 26 -7 15 -18 15 -19 -2 -24 -13 -3 -28 7 -50 34 -26 32 -28 39 -13 38 10 0 27 -4 38 -9z m42 -17 c-4 -3 -10 -3 -14 0 -3 4 0 7 7 7 7 0 10 -3 7 -7z m131 -44 c2 -5 8 -7 13 -3 5 3 9 0 9 -5 0 -6 7 -11 15 -11 8 0 15 -8 15 -17 0 -15 2 -16 10 -3 9 14 15 7 11 -14 -1 -5 5 -6 13 -3 9 4 21 -2 28 -11 7 -10 32 -33 55 -52 24 -18 41 -35 39 -37 -1 -2 12 -19 31 -39 18 -20 30 -40 27 -46 -4 -6 -2 -8 3 -5 6 4 16 0 23 -8 7 -8 9 -15 6 -15 -4 0 2 -10 13 -22 11 -11 18 -25 15 -30 -3 -4 0 -8 7 -8 9 0 9 -3 0 -14 -9 -11 -9 -16 0 -22 8 -5 9 -3 4 6 -5 9 -4 11 3 6 7 -4 12 -13 12 -20 0 -8 7 -27 15 -42 14 -27 14 -29 -7 -34 -21 -5 -46 -50 -28 -50 6 0 10 9 10 20 0 15 7 20 26 20 14 0 23 -4 19 -10 -3 -5 -2 -10 3 -10 11 0 36 -129 27 -138 -3 -3 -5 1 -5 8 0 7 -3 10 -7 7 -3 -4 -28 9 -54 28 -56 40 -216 121 -304 154 -90 34 -90 34 -87 74 2 19 -2 38 -7 42 -6 3 -8 11 -5 17 8 13 -16 118 -28 118 -4 0 -8 8 -8 18 0 10 -16 44 -35 76 -19 32 -35 60 -35 62 0 10 33 2 46 -11 9 -9 11 -15 4 -15 -6 0 -8 -5 -4 -12 5 -8 11 -5 17 10 6 12 14 22 19 22 4 0 8 7 8 16 0 12 -6 15 -23 10 -18 -4 -23 -1 -25 18 l-2 23 58 -20 c31 -10 59 -23 60 -28z m-500 -479 c2 0 0 -5 -4 -12 -4 -7 -3 -8 5 -4 14 9 131 -77 214 -158 52 -50 57 -59 45 -74 -12 -15 -11 -16 4 -4 14 11 20 8 42 -21 14 -19 26 -37 26 -40 0 -3 11 -18 25 -33 21 -22 23 -30 13 -42 -11 -13 -10 -15 3 -10 20 8 45 -37 27 -48 -7 -5 -8 -3 -3 6 5 9 4 11 -3 6 -14 -8 -16 -36 -4 -36 4 0 13 5 19 11 8 8 13 5 18 -11 11 -35 10 -35 -100 15 -32 15 -36 19 -20 23 10 2 21 0 23 -6 5 -15 32 -3 32 14 0 17 -5 17 -50 4 -29 -8 -37 -7 -47 7 -7 9 -13 13 -13 9 0 -4 -20 9 -45 30 -47 38 -56 54 -29 54 8 0 12 -4 9 -10 -4 -6 5 -10 19 -10 35 0 33 9 -4 21 -25 9 -30 16 -30 44 0 29 -3 32 -22 27 -17 -4 -20 -2 -15 11 4 12 -1 17 -21 19 -15 2 -26 8 -25 14 1 7 -7 14 -17 17 -11 3 -20 3 -20 1 0 -8 40 -44 50 -44 5 0 15 -10 21 -22 6 -13 8 -20 4 -16 -5 4 -14 3 -22 -3 -10 -9 -13 -8 -13 5 0 9 -4 16 -8 16 -4 0 -16 14 -25 30 -10 17 -25 30 -33 30 -8 0 -14 5 -14 11 0 7 -15 30 -34 53 -36 45 -64 95 -76 138 l-8 27 51 -19 c29 -11 53 -20 55 -20z m2097 -154 c128 -54 150 -96 150 -291 0 -129 -2 -144 -25 -188 -29 -58 -78 -101 -217 -191 -109 -70 -117 -79 -127 -141 -14 -82 35 -143 78 -99 12 11 16 35 16 85 l0 69 131 0 132 0 -5 -100 c-6 -130 -28 -167 -126 -213 -63 -30 -74 -32 -182 -32 -100 0 -122 3 -167 24 -55 24 -122 88 -125 119 -3 38 -5 48 -13 65 -15 35 0 189 24 243 28 64 47 82 188 178 147 101 159 116 158 207 -1 62 -4 74 -24 90 -29 24 -36 24 -61 -1 -20 -20 -24 -48 -24 -172 l0 -38 -129 0 -130 0 5 113 c4 89 9 121 26 154 50 97 158 145 312 140 59 -3 110 -11 135 -21z m720 -5 c60 -27 109 -72 137 -126 26 -49 37 -177 37 -410 0 -329 -15 -410 -91 -482 -60 -58 -120 -78 -233 -78 -100 0 -195 23 -195 46 0 6 -4 8 -9 5 -5 -4 -29 16 -54 43 -48 54 -72 118 -65 175 2 19 0 32 -4 30 -4 -3 -8 115 -8 261 0 146 3 264 8 262 4 -3 7 23 7 57 1 65 14 94 69 154 61 67 139 93 261 89 67 -2 103 -9 140 -26z m-4670 -42 c4 -28 9 -66 11 -83 2 -17 15 -107 29 -201 13 -93 25 -185 25 -204 0 -49 12 -30 16 26 6 69 44 335 51 353 6 15 8 29 11 85 2 23 4 27 12 15 6 -10 8 -3 3 23 l-6 37 179 -2 178 -3 8 -45 c4 -25 10 -76 13 -115 3 -38 21 -198 40 -355 19 -157 37 -312 40 -345 3 -33 9 -89 15 -125 16 -110 28 -100 -124 -100 l-134 0 -6 28 c-23 111 -62 510 -65 667 -2 112 -22 64 -27 -66 -4 -109 -28 -436 -41 -566 l-6 -63 -147 0 -147 0 -12 93 c-31 241 -51 440 -52 517 -2 154 -28 179 -29 29 -1 -46 -10 -196 -21 -334 -10 -137 -19 -262 -19 -277 l0 -28 -140 0 c-77 0 -140 1 -140 3 0 1 9 72 20 157 11 85 22 173 24 195 13 151 30 283 36 280 3 -2 5 11 4 28 -2 29 28 316 41 395 l6 32 174 0 173 0 7 -51z m975 -169 l0 -220 65 0 c130 0 203 -31 243 -104 14 -26 17 -60 17 -206 0 -163 -2 -178 -23 -223 -47 -93 -129 -117 -409 -117 l-173 0 0 545 0 545 140 0 140 0 0 -220z m4250 -10 l0 -230 84 0 c47 0 87 -4 91 -9 3 -6 2 -53 -1 -105 l-7 -96 -83 0 -84 0 0 -100 0 -99 98 -3 97 -3 2 -107 1 -108 -239 0 -239 0 0 545 0 545 140 0 140 0 0 -230z m670 -205 l0 -435 85 0 85 0 0 -110 0 -110 -309 0 -308 0 -1 110 -1 110 84 0 85 0 0 435 0 435 140 0 140 0 0 -435z m172 350 l22 -25 23 22 c20 18 26 20 45 9 33 -17 48 -57 48 -127 l0 -63 -131 0 -132 0 6 77 c6 91 13 111 41 122 36 15 55 11 78 -15z m-4062 -55 c-10 -6 -11 -10 -2 -10 6 0 12 -4 12 -10 0 -5 -7 -10 -15 -10 -8 0 -15 9 -15 20 0 12 7 20 18 20 14 0 15 -2 2 -10z m-712 -108 c-5 -2 -5 -8 -2 -14 4 -6 1 -14 -6 -18 -17 -11 -5 -40 16 -40 13 0 15 6 11 30 -4 17 -4 30 -1 30 10 0 69 -35 72 -42 2 -5 10 -8 17 -8 8 0 17 -5 21 -12 5 -8 2 -9 -10 -5 -10 4 -24 1 -32 -8 -9 -8 -11 -15 -5 -15 19 0 12 -28 -9 -35 -24 -8 -27 -49 -6 -71 21 -20 26 -18 26 11 0 14 -7 28 -15 31 -8 4 -12 10 -9 15 3 5 13 5 24 -1 29 -15 70 -12 70 5 0 8 -7 15 -16 15 -11 0 -14 5 -10 16 3 9 6 20 6 25 0 6 9 7 23 3 12 -4 28 -7 35 -7 6 0 12 -4 12 -9 0 -4 -9 -8 -20 -8 -15 0 -20 -7 -20 -25 0 -22 3 -24 33 -18 38 7 53 25 29 36 -10 4 -2 5 18 2 19 -3 53 -8 75 -11 71 -9 85 -14 85 -29 0 -8 20 -62 45 -119 25 -58 45 -108 45 -111 0 -2 16 -29 35 -59 19 -30 35 -58 35 -62 0 -4 12 -23 26 -42 l26 -34 -48 5 c-27 3 -75 13 -107 23 -52 17 -58 21 -54 42 4 22 3 22 -19 7 -22 -14 -27 -13 -72 15 -27 16 -54 30 -61 30 -6 0 -10 6 -9 13 2 6 -2 11 -9 10 -6 -2 -23 11 -37 28 -14 17 -26 27 -26 24 0 -4 -7 -2 -15 5 -8 7 -12 16 -9 21 3 5 -2 9 -10 9 -9 0 -13 6 -10 14 3 8 -4 16 -20 20 -17 4 -26 13 -26 26 0 11 -6 20 -12 20 -7 0 -18 10 -24 23 -6 12 -21 40 -34 62 -15 24 -18 35 -9 28 9 -7 19 -10 22 -6 13 12 7 22 -15 25 -13 2 -23 10 -23 18 0 8 -7 23 -16 33 -19 21 -31 67 -17 67 5 0 2 7 -6 16 -9 8 -16 21 -16 29 0 7 -3 22 -7 32 -4 12 7 6 33 -17 22 -19 36 -37 32 -38z m4912 -118 c0 -24 -1 -24 -102 -25 -57 -1 -106 -1 -109 -1 -8 1 -4 -86 4 -94 3 -4 51 -6 107 -5 l100 2 0 -26 0 -25 -105 0 c-67 0 -105 4 -105 11 0 5 -4 8 -9 4 -5 -3 -17 5 -25 17 -18 25 -22 118 -5 118 5 0 8 4 4 9 -3 5 4 16 16 25 16 10 49 14 125 14 103 0 104 0 104 -24z m0 -258 c0 -24 -3 -26 -50 -26 l-50 0 0 -50 0 -50 48 0 c43 0 48 -2 50 -24 l2 -24 -130 -1 -130 -2 0 25 c0 24 2 25 51 22 54 -3 85 14 75 41 -3 8 -6 25 -6 38 0 22 -5 24 -57 27 -49 3 -58 6 -61 23 -3 19 4 20 128 23 l130 3 0 -25z m-2780 -549 c6 -73 10 -175 8 -227 l-3 -95 -85 -3 c-83 -3 -326 12 -404 25 l-39 6 244 242 244 243 12 -30 c7 -16 17 -89 23 -161z"/>
<path d="M3520 2300 c0 -6 7 -10 15 -10 8 0 15 2 15 4 0 2 -7 6 -15 10 -8 3 -15 1 -15 -4z"/>
<path d="M3479 2067 c5 -5 25 -9 44 -10 24 -1 33 -5 30 -14 -3 -7 -1 -13 3 -13 5 0 19 -3 32 -6 27 -8 29 9 4 34 -12 12 -33 17 -69 17 -30 0 -49 -3 -44 -8z"/>
<path d="M2790 1985 c14 -17 30 -20 30 -4 0 5 -4 7 -10 4 -5 -3 -10 -1 -10 4 0 6 -5 11 -11 11 -8 0 -8 -5 1 -15z"/>
<path d="M3043 1773 c0 -9 4 -10 14 -2 7 6 13 12 13 14 0 1 -6 2 -13 2 -8 0 -14 -6 -14 -14z"/>
<path d="M3090 1610 c0 -7 3 -10 7 -7 3 4 3 10 0 14 -4 3 -7 0 -7 -7z"/>
<path d="M5506 1658 c-14 -8 -16 -45 -16 -368 0 -313 2 -361 16 -374 19 -20 24 -20 51 -1 21 15 22 17 19 363 -1 191 -6 354 -10 364 -9 20 -38 28 -60 16z"/>
<path d="M1413 793 c4 -3 10 -3 14 0 3 4 0 7 -7 7 -7 0 -10 -3 -7 -7z"/>
<path d="M7028 1723 c-10 -3 -18 -8 -19 -11 -1 -4 -3 -28 -5 -53 -4 -45 -3 -47 26 -51 16 -2 34 -2 39 1 8 5 15 55 12 88 -1 16 -32 31 -53 26z"/>
<path d="M7126 1712 c-3 -3 -6 -27 -6 -53 0 -37 4 -48 19 -52 33 -8 47 9 46 54 -1 37 -4 44 -27 50 -15 4 -29 4 -32 1z"/>
</g>
<g id="layer106" fill="#477084" stroke="none">
<path d="M0 1455 l0 -1455 3890 0 3890 0 0 1455 0 1455 -3890 0 -3890 0 0 -1455z m3207 1058 c-13 -13 -48 -9 -62 7 -16 18 -15 18 25 8 22 -6 39 -12 37 -15z m30 -10 c-4 -3 -10 -3 -14 0 -3 4 0 7 7 7 7 0 10 -3 7 -7z m183 -68 c41 -26 160 -127 151 -129 -1 -1 13 -18 33 -39 20 -21 33 -43 30 -49 -4 -6 -2 -8 3 -5 6 4 16 0 23 -8 7 -8 9 -15 6 -15 -4 0 2 -10 13 -22 11 -11 18 -25 15 -30 -3 -4 -1 -8 5 -8 5 0 12 -14 16 -31 4 -17 13 -42 21 -57 13 -25 12 -27 -8 -32 -21 -5 -46 -50 -28 -50 6 0 10 9 10 20 0 15 7 20 26 20 14 0 23 -4 19 -10 -3 -5 -2 -10 3 -10 10 0 37 -129 29 -136 -2 -2 -30 14 -61 36 -65 46 -221 125 -311 159 -90 34 -90 34 -87 74 2 19 -2 38 -7 42 -6 3 -8 11 -5 17 8 13 -16 118 -28 118 -4 0 -8 8 -8 18 0 10 -16 44 -35 76 -19 32 -35 60 -35 62 0 10 33 2 46 -11 9 -9 11 -15 4 -15 -6 0 -8 -5 -4 -12 5 -8 11 -5 17 10 6 12 14 22 19 22 4 0 8 7 8 16 0 12 -6 15 -23 10 -18 -4 -23 -1 -25 18 l-2 23 63 -22 c34 -12 82 -34 107 -50z m-224 53 c-11 19 8 14 26 -7 15 -18 15 -19 -2 -24 -11 -3 -26 3 -34 12 -21 23 -20 37 1 20 11 -10 14 -10 9 -1z m-382 -486 c31 -15 53 -32 49 -37 -4 -4 -2 -5 5 -1 15 9 130 -75 215 -158 52 -50 57 -59 45 -74 -12 -15 -11 -16 4 -4 14 11 20 8 42 -21 14 -19 26 -37 26 -40 0 -3 11 -18 25 -33 21 -22 23 -30 13 -42 -11 -13 -10 -15 3 -10 20 8 45 -37 27 -48 -7 -5 -8 -3 -3 6 5 9 4 11 -3 6 -14 -8 -16 -36 -4 -36 4 0 13 5 19 11 8 8 13 5 18 -11 11 -35 10 -35 -100 15 -32 15 -36 19 -20 23 10 2 21 0 23 -6 5 -15 32 -3 32 14 0 17 -5 17 -50 4 -29 -8 -37 -7 -47 7 -7 9 -13 13 -13 9 0 -5 -6 -3 -14 4 -8 6 -12 19 -9 28 3 12 2 14 -4 4 -17 -23 -154 103 -176 161 -3 9 -13 17 -22 17 -8 0 -15 5 -15 11 0 7 -15 30 -34 53 -39 48 -88 141 -79 150 4 3 1 6 -5 6 -7 0 -12 5 -12 10 0 14 1 14 64 -18z m2151 -176 c128 -54 150 -96 150 -291 0 -129 -2 -144 -25 -188 -29 -58 -78 -101 -217 -191 -109 -70 -117 -79 -127 -141 -14 -82 35 -143 78 -99 12 11 16 35 16 85 l0 69 131 0 132 0 -5 -100 c-6 -130 -28 -167 -126 -213 -63 -30 -74 -32 -182 -32 -100 0 -122 3 -167 24 -110 49 -150 133 -141 296 5 88 33 168 74 206 13 12 76 58 140 103 147 102 156 113 158 206 1 64 -2 74 -23 91 -29 24 -36 24 -61 -1 -17 -17 -20 -33 -20 -115 l0 -95 -131 0 -132 0 5 113 c4 89 9 121 26 154 50 97 158 145 312 140 59 -3 110 -11 135 -21z m720 -5 c60 -27 109 -72 137 -126 26 -49 37 -177 37 -410 0 -329 -15 -410 -91 -482 -61 -59 -119 -78 -238 -78 -129 1 -188 23 -253 95 -65 73 -69 90 -74 400 -5 293 4 430 33 477 69 111 159 155 309 150 67 -2 103 -9 140 -26z m-4675 2 c0 -3 16 -119 35 -257 19 -138 36 -264 37 -281 2 -16 13 44 26 135 12 91 32 220 44 288 l21 122 174 0 c130 0 175 -3 178 -12 3 -7 30 -231 60 -498 30 -267 58 -506 61 -532 l7 -48 -136 0 -135 0 -6 28 c-21 105 -66 548 -66 655 0 123 -18 81 -25 -58 -6 -120 -30 -445 -42 -562 l-6 -63 -147 0 -147 0 -12 93 c-27 206 -51 437 -57 539 -4 59 -11 105 -15 102 -5 -3 -9 -44 -9 -92 0 -48 -9 -199 -20 -337 -11 -137 -20 -262 -20 -277 l0 -28 -141 0 -141 0 6 38 c3 20 31 251 61 512 30 261 57 490 60 508 l6 32 174 0 c96 0 175 -3 175 -7z m980 -213 l0 -220 65 0 c130 0 203 -31 243 -104 14 -26 17 -60 17 -206 0 -163 -2 -178 -23 -223 -47 -93 -129 -117 -409 -117 l-173 0 0 545 0 545 140 0 140 0 0 -220z m4250 -10 l0 -230 84 0 c47 0 87 -4 91 -9 3 -6 2 -53 -1 -105 l-7 -96 -83 0 -84 0 0 -100 0 -99 98 -3 97 -3 2 -107 1 -108 -239 0 -239 0 0 545 0 545 140 0 140 0 0 -230z m670 -205 l0 -435 85 0 85 0 0 -110 0 -110 -310 0 -310 0 0 110 0 110 85 0 85 0 0 435 0 435 140 0 140 0 0 -435z m175 349 c14 -15 25 -22 25 -16 0 22 40 35 70 22 33 -14 40 -33 40 -122 l0 -68 -131 0 -132 0 6 88 c5 73 10 90 28 105 30 25 66 21 94 -9z m-4698 -205 c44 -23 72 -49 39 -36 -10 4 -24 1 -32 -8 -9 -8 -11 -15 -5 -15 19 0 12 -28 -9 -35 -24 -8 -27 -49 -6 -71 21 -20 26 -18 26 11 0 14 -7 28 -15 31 -8 4 -12 10 -9 15 3 5 13 5 24 -1 29 -15 70 -12 70 5 0 8 -7 15 -16 15 -11 0 -14 5 -10 16 3 9 6 20 6 25 0 6 9 7 23 3 12 -4 28 -7 35 -7 6 0 12 -4 12 -9 0 -4 -9 -8 -20 -8 -15 0 -20 -7 -20 -25 0 -22 3 -24 33 -18 38 7 53 25 29 36 -9 4 1 4 23 1 22 -4 64 -9 93 -13 l54 -6 17 -50 c10 -27 32 -82 49 -122 18 -39 32 -74 32 -77 0 -4 26 -45 58 -93 78 -119 75 -113 60 -108 -7 2 -31 6 -53 9 -23 2 -71 14 -108 26 -59 19 -65 23 -52 37 23 22 18 27 -10 9 -23 -15 -27 -14 -75 14 -28 17 -55 30 -60 30 -6 0 -9 5 -8 12 2 7 -2 12 -7 13 -18 0 -95 66 -89 76 3 5 -2 9 -10 9 -9 0 -13 6 -10 14 3 8 -4 16 -20 20 -14 3 -26 13 -26 21 0 8 -6 18 -12 22 -7 4 -19 19 -27 33 -8 14 -24 41 -35 60 -14 25 -16 31 -5 23 9 -7 19 -10 22 -6 13 12 7 22 -15 25 -13 2 -23 10 -23 18 0 8 -7 23 -16 33 -19 21 -31 67 -17 67 5 0 2 7 -6 16 -9 8 -16 21 -16 29 0 7 -3 22 -7 32 -4 10 16 -2 46 -29 30 -25 73 -56 98 -69z m4833 -74 l0 -25 -100 0 c-97 0 -101 -1 -112 -25 -8 -19 -8 -31 0 -50 11 -24 15 -25 112 -25 l100 0 0 -25 0 -25 -105 0 c-99 0 -107 2 -130 25 -20 19 -25 34 -25 75 0 41 5 56 25 75 23 23 31 25 130 25 l105 0 0 -25z m0 -260 c0 -23 -3 -25 -50 -25 l-50 0 0 -50 0 -50 50 0 c47 0 50 -2 50 -25 l0 -25 -130 0 -130 0 0 25 c0 24 3 25 60 25 l60 0 0 50 0 49 -57 3 c-51 3 -58 6 -61 26 -3 22 -3 22 127 22 l131 0 0 -25z m-2802 -367 c0 -13 6 -50 12 -83 6 -33 12 -141 13 -240 l2 -180 -85 -3 c-87 -3 -349 13 -408 26 l-33 7 241 240 c132 131 240 243 240 247 0 4 4 8 9 8 5 0 9 -10 9 -22z"/>
<path d="M3263 2483 c4 -3 10 -3 14 0 3 4 0 7 -7 7 -7 0 -10 -3 -7 -7z"/>
<path d="M3337 2449 c7 -7 15 -10 18 -7 3 3 -2 9 -12 12 -14 6 -15 5 -6 -5z"/>
<path d="M3294 2405 c-7 -17 12 -45 30 -45 6 0 3 5 -6 11 -20 11 -25 39 -7 39 5 0 7 -5 3 -12 -4 -7 -3 -8 4 -4 17 10 15 26 -3 26 -9 0 -18 -7 -21 -15z"/>
<path d="M3272 2355 c6 -13 15 -22 19 -19 5 2 1 14 -9 24 -22 26 -24 25 -10 -5z"/>
<path d="M3445 2351 c-3 -5 0 -13 6 -17 7 -4 9 -3 5 4 -3 5 0 13 6 15 9 4 10 6 1 6 -6 1 -14 -3 -18 -8z"/>
<path d="M3470 2315 c0 -8 9 -15 20 -15 11 0 20 7 20 15 0 8 -9 15 -20 15 -11 0 -20 -7 -20 -15z"/>
<path d="M3300 2306 c0 -7 9 -18 20 -26 11 -8 20 -22 20 -32 0 -10 5 -18 10 -18 6 0 10 14 10 31 0 17 -4 28 -10 24 -5 -3 -10 -1 -10 4 0 6 5 11 12 11 6 0 8 3 4 7 -12 12 -56 11 -56 -1z"/>
<path d="M3528 2293 c7 -3 16 -2 19 1 4 3 -2 6 -13 5 -11 0 -14 -3 -6 -6z"/>
<path d="M3553 2266 c9 -7 17 -18 17 -25 0 -6 7 -11 15 -11 28 0 15 28 -17 39 -28 9 -31 9 -15 -3z"/>
<path d="M3600 2205 c0 -8 -6 -15 -12 -15 -9 0 -8 -4 2 -11 11 -8 12 -12 2 -16 -6 -2 -10 -9 -6 -14 9 -15 24 -10 24 9 0 10 4 22 9 28 6 5 4 14 -5 22 -12 11 -14 10 -14 -3z"/>
<path d="M3335 2165 c4 -22 10 -43 14 -47 12 -13 6 46 -7 67 -12 17 -12 15 -7 -20z"/>
<path d="M3400 2140 c-9 -6 -10 -10 -3 -10 6 0 15 5 18 10 8 12 4 12 -15 0z"/>
<path d="M3695 2100 c3 -5 8 -10 11 -10 3 0 2 5 -1 10 -3 6 -8 10 -11 10 -3 0 -2 -4 1 -10z"/>
<path d="M3476 2069 c3 -5 12 -9 21 -9 19 0 9 13 -12 16 -8 1 -13 -2 -9 -7z"/>
<path d="M3520 2062 c0 -9 7 -11 20 -7 15 5 18 3 14 -8 -4 -13 20 -26 49 -27 13 0 8 19 -11 38 -21 21 -72 24 -72 4z"/>
<path d="M3692 2064 c-8 -9 -9 -14 -2 -14 6 0 8 -4 5 -10 -3 -5 3 -10 15 -10 18 0 19 3 9 23 -6 12 -12 23 -13 23 0 1 -7 -4 -14 -12z"/>
<path d="M2805 1980 c-3 -5 -1 -10 4 -10 6 0 11 5 11 10 0 6 -2 10 -4 10 -3 0 -8 -4 -11 -10z"/>
<path d="M2885 1940 c3 -5 8 -10 11 -10 3 0 2 5 -1 10 -3 6 -8 10 -11 10 -3 0 -2 -4 1 -10z"/>
<path d="M2820 1924 c-10 -11 -10 -14 -1 -14 7 0 9 -5 5 -12 -4 -7 -4 -10 1 -6 4 4 14 0 21 -10 7 -9 14 -12 14 -6 0 6 -7 18 -16 25 -14 12 -14 14 2 19 15 6 16 7 1 13 -8 3 -21 -1 -27 -9z"/>
<path d="M2866 1851 c-3 -5 1 -11 9 -15 8 -3 15 -1 15 4 0 13 -18 22 -24 11z"/>
<path d="M2985 1850 c-3 -5 -1 -10 4 -10 6 0 11 5 11 10 0 6 -2 10 -4 10 -3 0 -8 -4 -11 -10z"/>
<path d="M2947 1821 c-4 -17 -3 -21 5 -13 5 5 8 16 6 23 -3 8 -7 3 -11 -10z"/>
<path d="M2890 1809 c0 -5 5 -7 10 -4 6 3 10 8 10 11 0 2 -4 4 -10 4 -5 0 -10 -5 -10 -11z"/>
<path d="M2920 1789 c0 -5 5 -9 11 -9 5 0 7 -5 3 -12 -4 -7 -3 -8 4 -4 7 4 12 2 12 -3 0 -6 15 -10 33 -10 l32 1 -30 7 c-16 4 -29 12 -28 18 1 6 -7 13 -17 16 -11 3 -20 1 -20 -4z"/>
<path d="M3046 1778 c3 -5 10 -6 15 -3 13 9 11 12 -6 12 -8 0 -12 -4 -9 -9z"/>
<path d="M3030 1716 c0 -13 -6 -27 -12 -29 -8 -3 -6 -6 5 -6 12 -1 17 7 17 29 0 17 -2 30 -5 30 -3 0 -5 -11 -5 -24z"/>
<path d="M2980 1711 c0 -5 5 -13 10 -16 6 -3 10 -2 10 4 0 5 -4 13 -10 16 -5 3 -10 2 -10 -4z"/>
<path d="M3124 1688 c-4 -7 -3 -8 4 -4 12 7 16 16 8 16 -3 0 -8 -5 -12 -12z"/>
<path d="M3048 1663 c7 -3 10 -9 7 -14 -4 -5 6 -9 21 -9 33 0 21 16 -16 23 -14 2 -19 2 -12 0z"/>
<path d="M3208 1603 c7 -3 16 -2 19 1 4 3 -2 6 -13 5 -11 0 -14 -3 -6 -6z"/>
<path d="M3143 1583 c4 -3 10 -3 14 0 3 4 0 7 -7 7 -7 0 -10 -3 -7 -7z"/>
<path d="M3223 1523 c4 -3 10 -3 14 0 3 4 0 7 -7 7 -7 0 -10 -3 -7 -7z"/>
<path d="M7013 1708 c-4 -7 -9 -32 -10 -55 l-3 -43 40 0 c40 0 40 0 40 39 0 22 -3 46 -6 55 -7 19 -49 21 -61 4z"/>
<path d="M2306 1565 c4 -8 1 -15 -5 -15 -17 0 -13 -30 4 -37 9 -3 18 -3 21 0 9 8 -6 67 -16 67 -5 0 -7 -7 -4 -15z"/>
<path d="M2353 1543 c4 -6 1 -13 -5 -16 -7 -2 0 -4 15 -4 15 0 27 0 25 1 -2 1 -12 8 -22 16 -11 8 -17 10 -13 3z"/>
<path d="M2620 1416 c0 -22 3 -24 23 -17 12 5 22 15 22 22 0 8 -10 15 -22 17 -19 3 -23 -1 -23 -22z"/>
<path d="M2383 1323 c4 -3 10 -3 14 0 3 4 0 7 -7 7 -7 0 -10 -3 -7 -7z"/>
<path d="M2424 1288 c-4 -7 -3 -8 4 -4 12 7 16 16 8 16 -3 0 -8 -5 -12 -12z"/>
<path d="M2465 1270 c3 -5 8 -10 11 -10 3 0 2 5 -1 10 -3 6 -8 10 -11 10 -3 0 -2 -4 1 -10z"/>
<path d="M2733 1203 c4 -3 10 -3 14 0 3 4 0 7 -7 7 -7 0 -10 -3 -7 -7z"/>
<path d="M2541 1184 c0 -11 3 -14 6 -6 3 7 2 16 -1 19 -3 4 -6 -2 -5 -13z"/>
<path d="M2572 1191 c-14 -8 -8 -47 7 -43 6 1 11 -4 11 -11 0 -8 7 -14 15 -14 21 0 19 14 -5 27 -22 12 -18 30 6 30 8 0 12 -4 9 -10 -3 -5 -1 -10 5 -10 18 0 6 22 -16 31 -12 4 -26 4 -32 0z"/>
<path d="M2730 1163 c0 -17 24 -43 40 -43 22 0 27 -16 8 -23 -7 -3 -3 -6 10 -6 26 -1 26 -3 5 40 -12 23 -25 34 -40 35 -13 0 -23 -1 -23 -3z"/>
<path d="M2664 1085 c8 -8 16 -15 19 -15 2 0 4 7 4 15 0 8 -9 15 -19 15 -17 0 -18 -2 -4 -15z"/>
<path d="M2740 1060 c0 -5 7 -10 16 -10 8 0 12 5 9 10 -3 6 -10 10 -16 10 -5 0 -9 -4 -9 -10z"/>
<path d="M2820 1050 c0 -7 3 -10 7 -7 3 4 3 10 0 14 -4 3 -7 0 -7 -7z"/>
</g>
<g id="layer107" fill="#ff876d" stroke="none">
<path d="M0 1455 l0 -1455 3890 0 3890 0 0 1455 0 1455 -3890 0 -3890 0 0 -1455z m3312 1036 c195 -82 356 -251 432 -452 24 -64 51 -187 43 -195 -2 -2 -30 15 -63 38 -65 45 -264 145 -335 168 -60 19 -69 27 -69 64 -1 113 -67 275 -151 369 -27 30 -49 57 -49 60 0 9 128 -26 192 -52z m-491 -492 c127 -62 292 -205 382 -332 46 -64 111 -186 104 -193 -5 -6 -89 33 -142 66 -103 62 -235 190 -317 305 -32 45 -98 166 -98 180 0 8 5 7 71 -26z m2144 -173 c128 -54 150 -96 150 -291 0 -129 -2 -144 -25 -188 -29 -58 -78 -101 -217 -191 -109 -70 -117 -79 -127 -141 -14 -82 35 -143 78 -99 12 11 16 35 16 85 l0 69 131 0 132 0 -5 -100 c-6 -130 -28 -167 -126 -213 -63 -30 -74 -32 -182 -32 -100 0 -122 3 -167 24 -110 49 -150 133 -141 296 5 88 33 168 74 206 13 12 76 58 140 103 147 102 156 113 158 206 1 64 -2 74 -23 91 -29 24 -36 24 -61 -1 -17 -17 -20 -33 -20 -115 l0 -95 -131 0 -132 0 5 113 c4 89 9 121 26 154 50 97 158 145 312 140 59 -3 110 -11 135 -21z m720 -5 c60 -27 109 -72 137 -126 26 -49 37 -177 37 -410 0 -329 -15 -410 -91 -482 -61 -59 -119 -78 -238 -78 -129 1 -188 23 -253 95 -65 73 -69 90 -74 400 -5 293 4 430 33 477 69 111 159 155 309 150 67 -2 103 -9 140 -26z m-4667 -63 c6 -40 24 -164 39 -275 15 -111 28 -201 30 -200 1 2 12 70 23 153 11 82 30 204 42 272 l21 122 174 0 c130 0 175 -3 178 -12 3 -7 30 -231 60 -498 30 -267 58 -506 61 -532 l7 -48 -136 0 -135 0 -6 28 c-12 57 -45 353 -57 502 -6 85 -14 162 -17 170 -3 8 -15 -109 -27 -260 -12 -151 -26 -312 -30 -358 l-7 -82 -149 0 c-112 0 -149 3 -149 13 0 6 -11 100 -24 207 -14 107 -30 258 -38 335 -12 130 -13 136 -20 85 -8 -60 -48 -571 -48 -614 l0 -26 -141 0 -141 0 6 38 c3 20 31 251 61 512 30 261 57 490 60 508 l6 32 173 0 174 0 10 -72z m972 -148 l0 -220 65 0 c130 0 203 -31 243 -104 14 -26 17 -60 17 -206 0 -163 -2 -178 -23 -223 -47 -93 -129 -117 -409 -117 l-173 0 0 545 0 545 140 0 140 0 0 -220z m4250 -10 l0 -230 84 0 c47 0 87 -4 91 -9 3 -6 2 -53 -1 -105 l-7 -96 -83 0 -84 0 0 -100 0 -99 98 -3 97 -3 3 -107 3 -108 -241 0 -240 0 0 545 0 545 140 0 140 0 0 -230z m670 -205 l0 -435 85 0 85 0 0 -110 0 -110 -310 0 -310 0 0 110 0 110 85 0 85 0 0 435 0 435 140 0 140 0 0 -435z m174 353 c15 -20 16 -21 34 -5 25 23 58 21 82 -3 17 -17 20 -33 20 -100 l0 -80 -131 0 -132 0 5 85 c3 63 9 89 23 105 25 28 79 27 99 -2z m-4676 -216 c69 -37 195 -72 258 -72 39 0 44 -3 50 -27 10 -40 87 -219 120 -278 16 -27 45 -75 66 -105 46 -67 41 -70 -74 -41 -231 57 -428 219 -529 434 -33 71 -59 157 -59 196 0 21 5 19 53 -26 30 -26 81 -63 115 -81z m4812 -67 l0 -25 -100 0 c-97 0 -101 -1 -112 -25 -8 -19 -8 -31 0 -50 11 -24 15 -25 112 -25 l100 0 0 -25 0 -25 -105 0 c-99 0 -107 2 -130 25 -20 19 -25 34 -25 75 0 41 5 56 25 75 23 23 31 25 130 25 l105 0 0 -25z m0 -260 c0 -23 -3 -25 -50 -25 l-50 0 0 -50 0 -50 50 0 c47 0 50 -2 50 -25 l0 -25 -130 0 -130 0 0 25 c0 24 3 25 60 25 l60 0 0 50 0 49 -57 3 c-51 3 -58 6 -61 26 -3 22 -3 22 127 22 l131 0 0 -25z m-2790 -442 c8 -54 14 -172 14 -263 l1 -165 -85 -3 c-83 -3 -326 12 -403 24 l-39 7 244 247 c133 136 246 248 249 248 4 1 12 -42 19 -95z"/>
</g>
<g id="layer108" fill="#feb856" stroke="none">
<path d="M0 1455 l0 -1455 3890 0 3890 0 0 1455 0 1455 -3890 0 -3890 0 0 -1455z m3312 1036 c242 -102 427 -334 469 -591 9 -54 17 -73 35 -85 47 -30 151 -128 222 -208 187 -211 316 -465 372 -730 25 -115 42 -323 38 -447 l-3 -95 -85 -3 c-144 -6 -367 16 -498 48 -331 81 -624 260 -839 515 l-76 90 -81 16 c-206 42 -375 150 -492 315 -71 99 -134 250 -134 323 0 21 5 19 53 -26 30 -26 81 -63 115 -81 69 -37 195 -72 258 -72 l42 0 -14 47 c-8 26 -12 53 -10 60 3 7 1 13 -4 13 -6 0 -10 7 -10 16 0 11 6 15 20 11 11 -3 20 -1 20 4 0 5 8 9 18 9 41 0 212 81 212 101 0 3 -25 37 -55 75 -53 67 -142 221 -132 230 10 10 165 -79 230 -131 37 -30 70 -55 75 -55 23 0 93 151 108 233 6 37 24 52 24 20 0 -14 2 -15 9 -5 7 11 18 11 65 -1 l56 -15 0 36 c-1 119 -65 279 -151 375 -27 30 -49 57 -49 60 0 9 128 -26 192 -52z m1653 -665 c128 -54 150 -96 150 -291 0 -129 -2 -144 -25 -188 -29 -58 -78 -101 -217 -191 -109 -70 -117 -79 -127 -141 -14 -82 35 -143 78 -99 12 11 16 35 16 85 l0 69 131 0 132 0 -5 -100 c-6 -130 -28 -167 -126 -213 -63 -30 -74 -32 -182 -32 -100 0 -122 3 -167 24 -110 49 -150 133 -141 296 5 88 33 168 74 206 13 12 76 58 140 103 147 102 156 113 158 206 1 64 -2 74 -23 91 -29 24 -36 24 -61 -1 -17 -17 -20 -33 -20 -115 l0 -95 -131 0 -132 0 5 113 c4 89 9 121 26 154 50 97 158 145 312 140 59 -3 110 -11 135 -21z m720 -5 c60 -27 109 -72 137 -126 26 -49 37 -177 37 -410 0 -329 -15 -410 -91 -482 -61 -59 -119 -78 -238 -78 -129 1 -188 23 -253 95 -65 73 -69 90 -74 400 -5 293 4 430 33 477 69 111 159 155 309 150 67 -2 103 -9 140 -26z m-4667 -63 c6 -40 24 -164 39 -275 15 -111 28 -201 30 -200 1 2 12 70 23 153 11 82 30 204 42 272 l21 122 174 0 c130 0 175 -3 178 -12 3 -7 30 -231 60 -498 30 -267 58 -506 61 -532 l7 -48 -136 0 -135 0 -6 28 c-12 57 -45 353 -57 502 -6 85 -14 162 -17 170 -3 8 -15 -109 -27 -260 -12 -151 -26 -312 -30 -358 l-7 -82 -149 0 c-112 0 -149 3 -149 13 0 6 -11 100 -24 207 -14 107 -30 258 -38 335 -12 130 -13 136 -20 85 -8 -60 -48 -571 -48 -614 l0 -26 -141 0 -141 0 6 38 c3 20 31 251 61 512 30 261 57 490 60 508 l6 32 173 0 174 0 10 -72z m972 -148 l0 -220 65 0 c130 0 203 -31 243 -104 14 -26 17 -60 17 -206 0 -163 -2 -178 -23 -223 -47 -93 -129 -117 -409 -117 l-173 0 0 545 0 545 140 0 140 0 0 -220z m4250 -10 l0 -230 84 0 c47 0 87 -4 91 -9 3 -6 2 -53 -1 -105 l-7 -96 -83 0 -84 0 0 -100 0 -99 98 -3 97 -3 3 -107 3 -108 -241 0 -240 0 0 545 0 545 140 0 140 0 0 -230z m670 -205 l0 -435 85 0 85 0 0 -110 0 -110 -310 0 -310 0 0 110 0 110 85 0 85 0 0 435 0 435 140 0 140 0 0 -435z m174 353 c15 -20 16 -21 34 -5 25 23 58 21 82 -3 17 -17 20 -33 20 -100 l0 -80 -131 0 -132 0 5 85 c3 63 9 89 23 105 25 28 79 27 99 -2z m136 -283 l0 -25 -100 0 c-97 0 -101 -1 -112 -25 -8 -19 -8 -31 0 -50 11 -24 15 -25 112 -25 l100 0 0 -25 0 -25 -105 0 c-99 0 -107 2 -130 25 -20 19 -25 34 -25 75 0 41 5 56 25 75 23 23 31 25 130 25 l105 0 0 -25z m0 -260 c0 -23 -3 -25 -50 -25 l-50 0 0 -50 0 -50 50 0 c47 0 50 -2 50 -25 l0 -25 -130 0 -130 0 0 25 c0 24 3 25 60 25 l60 0 0 50 0 49 -57 3 c-51 3 -58 6 -61 26 -3 22 -3 22 127 22 l131 0 0 -25z"/>
</g>
<g id="layer109" fill="#ffc556" stroke="none">
<path d="M0 1455 l0 -1455 3890 0 3890 0 0 1455 0 1455 -3890 0 -3890 0 0 -1455z m3312 1036 c242 -102 427 -334 469 -591 9 -54 17 -73 35 -85 47 -30 151 -128 222 -208 187 -211 316 -465 372 -730 25 -115 42 -323 38 -447 l-3 -95 -85 -3 c-144 -6 -367 16 -498 48 -331 81 -624 260 -839 515 l-76 90 -81 16 c-206 42 -375 150 -492 315 -71 99 -134 250 -134 323 0 21 5 19 53 -26 30 -26 81 -63 115 -81 69 -37 195 -72 257 -72 l42 0 -18 66 c-10 36 -23 72 -29 79 -8 10 -4 14 15 19 14 4 35 4 48 1 34 -9 217 72 217 96 0 3 -25 37 -55 75 -55 68 -142 221 -132 231 10 10 163 -78 230 -132 37 -30 70 -55 75 -55 23 0 93 151 108 233 3 20 7 37 8 37 0 0 34 -9 74 -19 l72 -19 0 36 c-1 119 -65 279 -151 375 -27 30 -49 57 -49 60 0 9 128 -26 192 -52z m-615 -113 c-3 -8 -6 -5 -6 6 -1 11 2 17 5 13 3 -3 4 -12 1 -19z m-253 -4 c9 -3 13 -10 10 -16 -4 -6 8 -7 30 -3 29 6 36 4 36 -9 0 -9 -6 -16 -12 -16 -10 0 -9 -3 1 -9 8 -5 10 -14 6 -21 -6 -10 -2 -12 16 -7 13 4 36 7 52 7 20 0 27 5 27 20 0 18 2 19 23 8 41 -23 57 -20 58 10 1 16 3 20 6 10 3 -12 14 -18 34 -18 29 0 29 0 13 -25 -9 -14 -14 -34 -11 -45 3 -13 0 -20 -9 -20 -19 0 -17 -21 5 -47 25 -31 34 -29 27 5 -3 15 -3 21 0 15 3 -7 14 -13 24 -13 12 0 20 -10 24 -32 3 -17 4 -33 1 -36 -3 -3 -5 0 -5 6 0 7 -7 12 -16 12 -24 0 -183 93 -184 107 0 20 -60 42 -60 22 0 -5 -7 -9 -15 -9 -8 0 -15 -4 -15 -10 0 -5 -7 -10 -15 -10 -8 0 -15 7 -15 15 0 8 5 15 10 15 16 0 12 27 -5 34 -15 5 -18 -11 -18 -109 0 -25 -1 -26 -4 -6 -4 20 -7 22 -14 10 -8 -10 -8 -7 -4 10 6 19 4 23 -9 18 -9 -4 -16 -1 -16 6 0 7 -3 23 -5 37 -5 22 -3 21 9 -5 14 -30 14 -29 15 32 0 50 -3 63 -17 66 -9 3 -12 5 -5 6 6 0 18 -2 27 -5z m293 -1 c-4 -3 -10 -3 -14 0 -3 4 0 7 7 7 7 0 10 -3 7 -7z m80 0 c-4 -3 -10 -3 -14 0 -3 4 0 7 7 7 7 0 10 -3 7 -7z m86 -16 c7 4 5 -2 -3 -12 -14 -17 -13 -18 13 -11 19 4 35 1 50 -10 l22 -16 -22 7 c-13 3 -23 2 -23 -2 0 -8 -56 -33 -73 -33 -3 0 -2 14 3 31 11 38 6 49 -21 49 -12 0 -17 4 -14 11 5 7 15 5 31 -6 14 -9 30 -13 37 -8z m-483 -19 c0 -18 -2 -20 -9 -8 -6 8 -7 18 -5 22 9 14 14 9 14 -14z m163 -8 c-6 -21 -37 -27 -48 -10 -3 6 1 10 9 10 9 0 16 5 16 10 0 6 6 10 14 10 9 0 12 -7 9 -20z m270 3 c-7 -2 -13 -11 -13 -19 0 -8 -9 -14 -20 -14 -25 0 -27 27 -2 33 24 7 50 7 35 0z m166 -49 c5 3 19 -6 32 -21 19 -21 20 -25 6 -20 -16 6 -15 2 5 -21 19 -24 24 -26 30 -13 4 9 7 12 8 6 1 -5 3 -14 4 -20 1 -5 6 -19 11 -29 6 -13 5 -21 -3 -24 -7 -2 -12 -10 -12 -18 0 -18 -24 -18 -40 1 -10 13 -9 15 8 15 15 0 20 5 16 15 -4 8 -11 15 -18 15 -6 0 -16 8 -23 19 -6 10 -25 21 -42 24 -25 5 -31 12 -31 31 0 14 5 28 12 32 6 4 8 3 4 -4 -8 -13 29 -26 45 -17 7 5 2 12 -12 19 -12 6 -24 18 -26 26 -3 10 0 9 7 -3 6 -9 15 -15 19 -13z m-59 -28 c0 -8 -4 -17 -8 -20 -13 -8 -35 11 -28 23 10 16 36 14 36 -3z m-430 -72 c0 -13 -6 -24 -12 -25 -7 0 -4 -4 6 -8 17 -7 18 -8 3 -14 -9 -3 -19 -2 -22 3 -11 18 -35 10 -36 -12 -1 -19 -2 -20 -6 -4 -3 10 0 23 6 29 6 6 11 23 11 38 0 23 3 26 25 21 18 -3 25 -11 25 -28z m607 -31 c-4 -3 -7 0 -7 7 0 7 3 10 7 7 3 -4 3 -10 0 -14z m-589 -54 c-20 -13 -55 -11 -61 4 -4 10 2 13 18 10 12 -3 29 2 36 10 12 13 14 13 17 0 2 -9 -2 -19 -10 -24z m612 -4 c0 -7 -30 -13 -34 -7 -3 4 4 9 15 9 10 1 19 0 19 -2z m-707 -12 c-7 -2 -21 -2 -30 0 -10 3 -4 5 12 5 17 0 24 -2 18 -5z m37 -14 c0 -5 -4 -9 -10 -9 -5 0 -10 7 -10 16 0 8 5 12 10 9 6 -3 10 -10 10 -16z m-93 -46 c-4 -3 -7 0 -7 7 0 7 3 10 7 7 3 -4 3 -10 0 -14z m203 -4 c-12 -9 -11 -10 8 -6 17 4 22 1 22 -14 0 -14 -7 -19 -29 -19 -17 0 -33 5 -36 10 -9 14 13 40 34 40 14 0 14 -2 1 -11z m-63 -26 c-4 -3 -10 -3 -14 0 -3 4 0 7 7 7 7 0 10 -3 7 -7z m-31 -77 c4 -19 2 -31 -7 -37 -11 -7 -9 -9 6 -9 15 0 17 -2 6 -9 -11 -7 -10 -10 5 -13 16 -4 14 -6 -8 -12 -18 -5 -28 -15 -28 -27 0 -10 -5 -19 -11 -19 -5 0 -8 4 -4 9 3 5 0 13 -6 17 -8 5 -8 9 1 14 7 4 9 16 5 29 -8 27 -25 28 -18 1 3 -12 0 -20 -7 -20 -7 0 -10 7 -6 15 3 8 0 20 -7 27 -7 7 -13 24 -14 38 l-3 25 16 -27 c15 -29 28 -35 39 -17 4 5 -3 18 -14 28 -32 28 -26 40 14 27 26 -8 36 -18 41 -40z m2459 -90 c128 -54 150 -96 150 -291 0 -129 -2 -144 -25 -188 -29 -58 -78 -101 -217 -191 -109 -70 -117 -79 -127 -141 -14 -82 35 -143 78 -99 12 11 16 35 16 85 l0 69 131 0 132 0 -5 -100 c-6 -130 -28 -167 -126 -213 -63 -30 -74 -32 -182 -32 -100 0 -122 3 -167 24 -110 49 -150 133 -141 296 5 88 33 168 74 206 13 12 76 58 140 103 147 102 156 113 158 206 1 64 -2 74 -23 91 -29 24 -36 24 -61 -1 -17 -17 -20 -33 -20 -115 l0 -95 -131 0 -132 0 5 113 c4 89 9 121 26 154 50 97 158 145 312 140 59 -3 110 -11 135 -21z m720 -5 c60 -27 109 -72 137 -126 26 -49 37 -177 37 -410 0 -329 -15 -410 -91 -482 -61 -59 -119 -78 -238 -78 -129 1 -188 23 -253 95 -65 73 -69 90 -74 400 -5 293 4 430 33 477 69 111 159 155 309 150 67 -2 103 -9 140 -26z m-3139 -8 c-3 -3 -13 -2 -23 2 -17 7 -17 8 2 15 19 7 34 -5 21 -17z m-1528 -55 c6 -40 24 -164 39 -275 15 -111 28 -201 30 -200 1 2 12 70 23 153 11 82 30 204 42 272 l21 122 174 0 c130 0 175 -3 178 -12 3 -7 30 -231 60 -498 30 -267 58 -506 61 -532 l7 -48 -136 0 -135 0 -6 28 c-12 57 -45 353 -57 502 -6 85 -14 162 -17 170 -3 8 -15 -109 -27 -260 -12 -151 -26 -312 -30 -358 l-7 -82 -149 0 c-112 0 -149 3 -149 13 0 6 -11 100 -24 207 -14 107 -30 258 -38 335 -12 130 -13 136 -20 85 -8 -60 -48 -571 -48 -614 l0 -26 -141 0 -141 0 6 38 c3 20 31 251 61 512 30 261 57 490 60 508 l6 32 173 0 174 0 10 -72z m972 -148 l0 -220 65 0 c130 0 203 -31 243 -104 14 -26 17 -60 17 -206 0 -163 -2 -178 -23 -223 -47 -93 -129 -117 -409 -117 l-173 0 0 545 0 545 140 0 140 0 0 -220z m4250 -10 l0 -230 84 0 c47 0 87 -4 91 -9 3 -6 2 -53 -1 -105 l-7 -96 -83 0 -84 0 0 -100 0 -99 98 -3 97 -3 3 -107 3 -108 -241 0 -240 0 0 545 0 545 140 0 140 0 0 -230z m670 -205 l0 -435 85 0 85 0 0 -110 0 -110 -310 0 -310 0 0 110 0 110 85 0 85 0 0 435 0 435 140 0 140 0 0 -435z m-4390 395 c7 -13 7 -20 1 -20 -6 0 -15 9 -21 20 -7 13 -7 20 -1 20 6 0 15 -9 21 -20z m-9 -37 c13 -16 12 -17 -3 -4 -10 7 -18 15 -18 17 0 8 8 3 21 -13z m55 -11 c1 -12 12 -32 25 -43 l24 -21 -30 4 c-25 2 -29 7 -27 26 3 21 1 22 -16 13 -17 -9 -19 -8 -15 9 3 11 13 20 22 20 14 0 14 2 1 11 -13 9 -13 10 0 6 8 -2 16 -13 16 -25z m4518 6 c15 -20 16 -21 34 -5 25 23 58 21 82 -3 17 -17 20 -33 20 -100 l0 -80 -131 0 -132 0 5 85 c3 63 9 89 23 105 25 28 79 27 99 -2z m-4404 -48 c0 -6 -8 -19 -18 -30 -17 -19 -18 -19 -30 0 -11 17 -10 20 8 20 11 0 20 5 20 10 0 6 5 10 10 10 6 0 10 -5 10 -10z m48 -37 c-3 -19 -55 -36 -64 -21 -3 5 3 12 15 15 12 3 21 9 21 14 0 5 7 9 16 9 9 0 14 -7 12 -17z m-91 -30 c-8 -7 -35 9 -41 23 -4 11 0 11 20 -2 13 -9 23 -18 21 -21z m4583 -168 l0 -25 -100 0 c-97 0 -101 -1 -112 -25 -8 -19 -8 -31 0 -50 11 -24 15 -25 112 -25 l100 0 0 -25 0 -25 -105 0 c-99 0 -107 2 -130 25 -20 19 -25 34 -25 75 0 41 5 56 25 75 23 23 31 25 130 25 l105 0 0 -25z m0 -260 c0 -23 -3 -25 -50 -25 l-50 0 0 -50 0 -50 50 0 c47 0 50 -2 50 -25 l0 -25 -130 0 -130 0 0 25 c0 24 3 25 60 25 l60 0 0 50 0 49 -57 3 c-51 3 -58 6 -61 26 -3 22 -3 22 127 22 l131 0 0 -25z"/>
<path d="M2705 2311 c-3 -6 -13 -11 -21 -11 -9 0 -22 -7 -31 -15 -13 -14 -12 -15 16 -13 17 1 31 8 31 14 0 7 6 14 13 17 6 2 9 7 6 11 -4 4 -10 3 -14 -3z"/>
<path d="M2682 2236 c7 -8 15 -12 17 -11 5 6 -10 25 -20 25 -5 0 -4 -6 3 -14z"/>
</g>
<g id="layer110" fill="#ffd867" stroke="none">
<path d="M0 1455 l0 -1455 3890 0 3890 0 0 1455 0 1455 -3890 0 -3890 0 0 -1455z m3312 1036 c242 -102 427 -334 469 -591 9 -54 17 -73 35 -85 47 -30 151 -128 222 -208 187 -211 316 -465 372 -730 25 -115 42 -323 38 -447 l-3 -95 -85 -3 c-144 -6 -367 16 -498 48 -331 81 -624 260 -839 515 l-76 90 -81 16 c-206 42 -375 150 -492 315 -71 99 -134 250 -134 323 0 21 5 19 53 -26 30 -26 81 -63 115 -81 69 -37 195 -72 258 -72 42 0 43 0 34 28 -5 15 -14 45 -19 68 -9 33 -22 48 -75 86 -129 93 -226 273 -226 418 l0 43 46 -6 c39 -4 44 -2 38 12 -34 79 -53 147 -56 201 -3 73 -10 69 89 57 28 -4 82 -18 118 -32 37 -14 68 -25 69 -25 1 0 -1 21 -3 46 l-3 47 67 -8 c170 -18 304 -100 416 -254 22 -31 36 -39 92 -52 l67 -16 0 36 c-1 118 -65 278 -151 374 -27 30 -49 57 -49 60 0 9 128 -26 192 -52z m1653 -665 c128 -54 150 -96 150 -291 0 -129 -2 -144 -25 -188 -29 -58 -78 -101 -217 -191 -109 -70 -117 -79 -127 -141 -14 -82 35 -143 78 -99 12 11 16 35 16 85 l0 69 131 0 132 0 -5 -100 c-6 -130 -28 -167 -126 -213 -63 -30 -74 -32 -182 -32 -100 0 -122 3 -167 24 -110 49 -150 133 -141 296 5 88 33 168 74 206 13 12 76 58 140 103 147 102 156 113 158 206 1 64 -2 74 -23 91 -29 24 -36 24 -61 -1 -17 -17 -20 -33 -20 -115 l0 -95 -131 0 -132 0 5 113 c4 89 9 121 26 154 50 97 158 145 312 140 59 -3 110 -11 135 -21z m720 -5 c60 -27 109 -72 137 -126 26 -49 37 -177 37 -410 0 -329 -15 -410 -91 -482 -61 -59 -119 -78 -238 -78 -129 1 -188 23 -253 95 -65 73 -69 90 -74 400 -5 293 4 430 33 477 69 111 159 155 309 150 67 -2 103 -9 140 -26z m-4667 -63 c6 -40 24 -164 39 -275 15 -111 28 -201 30 -200 1 2 12 70 23 153 11 82 30 204 42 272 l21 122 174 0 c130 0 175 -3 178 -12 3 -7 30 -231 60 -498 30 -267 58 -506 61 -532 l7 -48 -136 0 -135 0 -6 28 c-12 57 -45 353 -57 502 -6 85 -14 162 -17 170 -3 8 -15 -109 -27 -260 -12 -151 -26 -312 -30 -358 l-7 -82 -149 0 c-112 0 -149 3 -149 13 0 6 -11 100 -24 207 -14 107 -30 258 -38 335 -12 130 -13 136 -20 85 -8 -60 -48 -571 -48 -614 l0 -26 -141 0 -141 0 6 38 c3 20 31 251 61 512 30 261 57 490 60 508 l6 32 173 0 174 0 10 -72z m972 -148 l0 -220 65 0 c130 0 203 -31 243 -104 14 -26 17 -60 17 -206 0 -163 -2 -178 -23 -223 -47 -93 -129 -117 -409 -117 l-173 0 0 545 0 545 140 0 140 0 0 -220z m4250 -10 l0 -230 84 0 c47 0 87 -4 91 -9 3 -6 2 -53 -1 -105 l-7 -96 -83 0 -84 0 0 -100 0 -99 98 -3 97 -3 3 -107 3 -108 -241 0 -240 0 0 545 0 545 140 0 140 0 0 -230z m670 -205 l0 -435 85 0 85 0 0 -110 0 -110 -310 0 -310 0 0 110 0 110 85 0 85 0 0 435 0 435 140 0 140 0 0 -435z m174 353 c15 -20 16 -21 34 -5 25 23 58 21 82 -3 17 -17 20 -33 20 -100 l0 -80 -131 0 -132 0 5 85 c3 63 9 89 23 105 25 28 79 27 99 -2z m136 -283 l0 -25 -100 0 c-97 0 -101 -1 -112 -25 -8 -19 -8 -31 0 -50 11 -24 15 -25 112 -25 l100 0 0 -25 0 -25 -105 0 c-99 0 -107 2 -130 25 -20 19 -25 34 -25 75 0 41 5 56 25 75 23 23 31 25 130 25 l105 0 0 -25z m0 -260 c0 -23 -3 -25 -50 -25 l-50 0 0 -50 0 -50 50 0 c47 0 50 -2 50 -25 l0 -25 -130 0 -130 0 0 25 c0 24 3 25 60 25 l60 0 0 50 0 49 -57 3 c-51 3 -58 6 -61 26 -3 22 -3 22 127 22 l131 0 0 -25z"/>
<path d="M2790 2278 c0 -7 5 -42 10 -78 5 -35 7 -66 5 -68 -2 -2 -48 21 -102 50 -111 62 -180 91 -187 80 -6 -10 30 -111 47 -131 17 -20 87 -145 87 -156 0 -7 -68 -2 -133 10 -28 6 -29 5 -22 -26 10 -44 46 -109 90 -163 51 -62 150 -132 189 -134 5 0 12 -5 16 -12 7 -12 97 24 134 54 17 13 17 18 5 34 -8 10 -36 48 -63 83 -49 65 -121 197 -112 206 9 10 163 -79 229 -132 37 -30 70 -55 75 -55 14 0 65 95 66 125 0 17 9 39 19 49 9 11 17 27 16 35 0 11 -3 10 -8 -4 -13 -33 -34 -23 -65 29 -41 71 -116 140 -189 175 -84 39 -107 46 -107 29z"/>
<path d="M2758 1633 c7 -3 16 -2 19 1 4 3 -2 6 -13 5 -11 0 -14 -3 -6 -6z"/>
</g>
<g id="layer111" fill="#6cdff9" stroke="none">
<path d="M0 1455 l0 -1455 3890 0 3890 0 0 1455 0 1455 -3890 0 -3890 0 0 -1455z m3312 1036 c242 -102 427 -334 469 -591 9 -54 17 -73 35 -85 47 -30 151 -128 222 -208 187 -211 316 -465 372 -730 25 -115 42 -323 38 -447 l-3 -95 -85 -3 c-144 -6 -367 16 -498 48 -331 81 -624 260 -839 515 l-76 90 -81 16 c-206 42 -375 150 -492 315 -71 99 -134 250 -134 323 0 21 5 19 53 -26 30 -26 81 -63 115 -81 69 -37 195 -72 258 -72 42 0 43 0 34 28 -5 15 -14 45 -19 68 -9 33 -22 48 -75 86 -129 93 -226 273 -226 418 l0 43 46 -6 c39 -4 44 -2 38 12 -34 79 -53 147 -56 201 l-3 65 55 -3 c45 -3 136 -27 210 -56 13 -5 15 2 11 40 l-3 47 67 -8 c170 -18 304 -100 416 -254 22 -31 36 -39 92 -52 l67 -16 0 36 c-1 118 -65 278 -151 374 -27 30 -49 57 -49 60 0 9 128 -26 192 -52z m1653 -665 c128 -54 150 -96 150 -291 0 -129 -2 -144 -25 -188 -29 -58 -78 -101 -217 -191 -109 -70 -117 -79 -127 -141 -14 -82 35 -143 78 -99 12 11 16 35 16 85 l0 69 131 0 132 0 -5 -100 c-6 -130 -28 -167 -126 -213 -63 -30 -74 -32 -182 -32 -100 0 -122 3 -167 24 -110 49 -150 133 -141 296 5 88 33 168 74 206 13 12 76 58 140 103 147 102 156 113 158 206 1 64 -2 74 -23 91 -29 24 -36 24 -61 -1 -17 -17 -20 -33 -20 -115 l0 -95 -131 0 -132 0 5 113 c4 89 9 121 26 154 50 97 158 145 312 140 59 -3 110 -11 135 -21z m720 -5 c60 -27 109 -72 137 -126 26 -49 37 -177 37 -410 0 -329 -15 -410 -91 -482 -61 -59 -119 -78 -238 -78 -129 1 -188 23 -253 95 -65 73 -69 90 -74 400 -5 293 4 430 33 477 69 111 159 155 309 150 67 -2 103 -9 140 -26z m-4667 -63 c6 -40 24 -164 39 -275 15 -111 28 -201 30 -200 1 2 12 70 23 153 11 82 30 204 42 272 l21 122 174 0 c130 0 175 -3 178 -12 3 -7 30 -231 60 -498 30 -267 58 -506 61 -532 l7 -48 -136 0 -135 0 -6 28 c-12 57 -45 353 -57 502 -6 85 -14 162 -17 170 -3 8 -15 -109 -27 -260 -12 -151 -26 -312 -30 -358 l-7 -82 -149 0 c-112 0 -149 3 -149 13 0 6 -11 100 -24 207 -14 107 -30 258 -38 335 -12 130 -13 136 -20 85 -8 -60 -48 -571 -48 -614 l0 -26 -141 0 -141 0 6 38 c3 20 31 251 61 512 30 261 57 490 60 508 l6 32 173 0 174 0 10 -72z m972 -148 l0 -220 65 0 c130 0 203 -31 243 -104 14 -26 17 -60 17 -206 0 -163 -2 -178 -23 -223 -47 -93 -129 -117 -409 -117 l-173 0 0 545 0 545 140 0 140 0 0 -220z m4250 -10 l0 -230 84 0 c47 0 87 -4 91 -9 3 -6 2 -53 -1 -105 l-7 -96 -83 0 -84 0 0 -100 0 -99 98 -3 97 -3 3 -107 3 -108 -241 0 -240 0 0 545 0 545 140 0 140 0 0 -230z m670 -205 l0 -435 85 0 85 0 0 -110 0 -110 -310 0 -310 0 0 110 0 110 85 0 85 0 0 435 0 435 140 0 140 0 0 -435z m174 353 c15 -20 16 -21 34 -5 25 23 58 21 82 -3 17 -17 20 -33 20 -100 l0 -80 -131 0 -132 0 5 85 c3 63 9 89 23 105 25 28 79 27 99 -2z m136 -283 l0 -25 -100 0 c-97 0 -101 -1 -112 -25 -8 -19 -8 -31 0 -50 11 -24 15 -25 112 -25 l100 0 0 -25 0 -25 -105 0 c-99 0 -107 2 -130 25 -20 19 -25 34 -25 75 0 41 5 56 25 75 23 23 31 25 130 25 l105 0 0 -25z m0 -260 c0 -23 -3 -25 -50 -25 l-50 0 0 -50 0 -50 50 0 c47 0 50 -2 50 -25 l0 -25 -130 0 -130 0 0 25 c0 24 3 25 60 25 l60 0 0 50 0 49 -57 3 c-51 3 -58 6 -61 26 -3 22 -3 22 127 22 l131 0 0 -25z"/>
<path d="M3620 1401 c-90 -29 -168 -93 -211 -174 -32 -59 -34 -67 -34 -162 0 -122 19 -170 97 -249 137 -137 362 -135 492 4 24 26 54 66 65 89 87 170 10 387 -167 472 -51 24 -193 36 -242 20z"/>
<path d="M7017 1713 c-3 -5 -8 -29 -12 -55 l-7 -48 41 0 c40 0 41 1 41 36 0 19 -5 44 -10 55 -11 19 -44 26 -53 12z"/>
<path d="M7127 1704 c-4 -4 -7 -27 -7 -51 0 -41 1 -43 31 -43 30 0 30 1 27 48 -2 38 -7 48 -23 50 -12 2 -24 0 -28 -4z"/>
</g>
<g id="layer112" fill="#ffffff" stroke="none">
<path d="M0 1455 l0 -1455 3890 0 3890 0 0 1455 0 1455 -3890 0 -3890 0 0 -1455z m3312 1036 c242 -102 427 -334 469 -591 9 -54 17 -73 35 -85 47 -30 151 -128 222 -208 187 -211 316 -465 372 -730 25 -115 42 -323 38 -447 l-3 -95 -85 -3 c-144 -6 -367 16 -498 48 -331 81 -624 260 -839 515 l-76 90 -81 16 c-206 42 -375 150 -492 315 -71 99 -134 250 -134 323 0 21 5 19 53 -26 30 -26 81 -63 115 -81 69 -37 195 -72 258 -72 42 0 43 0 34 28 -5 15 -14 45 -19 68 -9 33 -22 48 -75 86 -129 93 -226 273 -226 418 l0 43 46 -6 c39 -4 44 -2 38 12 -34 79 -53 147 -56 201 l-3 65 55 -3 c45 -3 136 -27 210 -56 13 -5 15 2 11 40 l-3 47 67 -8 c170 -18 304 -100 416 -254 22 -31 36 -39 92 -52 l67 -16 0 36 c-1 118 -65 278 -151 374 -27 30 -49 57 -49 60 0 9 128 -26 192 -52z m1653 -665 c128 -54 150 -96 150 -291 0 -129 -2 -144 -25 -188 -29 -58 -78 -101 -217 -191 -109 -70 -117 -79 -127 -141 -14 -82 35 -143 78 -99 12 11 16 35 16 85 l0 69 131 0 132 0 -5 -100 c-6 -130 -28 -167 -126 -213 -63 -30 -74 -32 -182 -32 -100 0 -122 3 -167 24 -110 49 -150 133 -141 296 5 88 33 168 74 206 13 12 76 58 140 103 147 102 156 113 158 206 1 64 -2 74 -23 91 -29 24 -36 24 -61 -1 -17 -17 -20 -33 -20 -115 l0 -95 -131 0 -132 0 5 113 c4 89 9 121 26 154 50 97 158 145 312 140 59 -3 110 -11 135 -21z m720 -5 c60 -27 109 -72 137 -126 26 -49 37 -177 37 -410 0 -329 -15 -410 -91 -482 -61 -59 -119 -78 -238 -78 -129 1 -188 23 -253 95 -65 73 -69 90 -74 400 -5 293 4 430 33 477 69 111 159 155 309 150 67 -2 103 -9 140 -26z m-4667 -63 c6 -40 24 -164 39 -275 15 -111 28 -201 30 -200 1 2 12 70 23 153 11 82 30 204 42 272 l21 122 174 0 c130 0 175 -3 178 -12 3 -7 30 -231 60 -498 30 -267 58 -506 61 -532 l7 -48 -136 0 -135 0 -6 28 c-18 86 -66 544 -66 623 0 27 -4 49 -8 49 -5 0 -18 -132 -31 -292 -12 -161 -25 -319 -28 -350 l-6 -58 -148 0 c-113 0 -149 3 -149 13 0 6 -11 100 -24 207 -13 107 -30 254 -37 325 -12 120 -14 126 -21 80 -7 -52 -48 -553 -48 -599 l0 -26 -141 0 -141 0 6 38 c3 20 31 251 61 512 30 261 57 490 60 508 l6 32 173 0 174 0 10 -72z m972 -148 l0 -220 65 0 c130 0 203 -31 243 -104 14 -26 17 -60 17 -206 0 -163 -2 -178 -23 -223 -47 -93 -129 -117 -409 -117 l-173 0 0 545 0 545 140 0 140 0 0 -220z m4250 -10 l0 -230 84 0 c47 0 87 -4 91 -9 3 -6 2 -53 -1 -105 l-7 -96 -83 0 -84 0 0 -100 0 -99 98 -3 97 -3 3 -107 3 -108 -241 0 -240 0 0 545 0 545 140 0 140 0 0 -230z m670 -205 l0 -435 85 0 85 0 0 -110 0 -110 -310 0 -310 0 0 110 0 110 85 0 85 0 0 435 0 435 140 0 140 0 0 -435z m178 355 c17 -18 20 -19 32 -5 17 21 56 19 80 -5 17 -17 20 -33 20 -100 l0 -80 -130 0 -130 0 0 79 c0 64 4 83 21 105 26 33 79 36 107 6z m132 -285 l0 -25 -100 0 c-97 0 -101 -1 -112 -25 -8 -19 -8 -31 0 -50 11 -24 15 -25 112 -25 l100 0 0 -25 0 -25 -105 0 c-99 0 -107 2 -130 25 -20 19 -25 34 -25 75 0 41 5 56 25 75 23 23 31 25 130 25 l105 0 0 -25z m0 -260 c0 -23 -3 -25 -50 -25 l-50 0 0 -50 0 -50 50 0 c47 0 50 -2 50 -25 l0 -25 -130 0 -130 0 0 25 c0 24 3 25 60 25 l60 0 0 50 0 49 -57 3 c-51 3 -58 6 -61 26 -3 22 -3 22 127 22 l131 0 0 -25z"/>
<path d="M3620 1401 c-90 -29 -168 -93 -211 -174 -32 -59 -34 -67 -34 -162 0 -122 19 -170 97 -249 137 -137 362 -135 492 4 24 26 54 66 65 89 87 170 10 387 -167 472 -51 24 -193 36 -242 20z m195 -130 c75 -35 135 -126 135 -204 0 -81 -48 -163 -119 -205 -60 -35 -155 -37 -217 -4 -52 27 -110 93 -118 134 -34 169 62 298 219 298 37 0 75 -8 100 -19z"/>
<path d="M5506 1658 c-14 -8 -16 -45 -16 -368 0 -313 2 -361 16 -374 19 -20 25 -20 50 -2 18 14 19 29 19 353 0 186 -3 350 -7 364 -9 29 -36 41 -62 27z"/>
<path d="M1990 1065 l0 -135 28 0 c51 0 62 25 62 138 0 112 -9 132 -61 132 l-29 0 0 -135z"/>
<path d="M7017 1713 c-3 -5 -8 -29 -12 -55 l-7 -48 41 0 c39 0 41 2 41 29 0 46 -17 81 -39 81 -11 0 -22 -3 -24 -7z"/>
<path d="M7127 1703 c-4 -3 -7 -26 -7 -50 0 -41 1 -43 30 -43 29 0 30 2 30 44 0 31 -5 46 -16 50 -20 8 -29 8 -37 -1z"/>
</g>


</svg>